G04 #@! TF.GenerationSoftware,KiCad,Pcbnew,(5.1.2)-1*
G04 #@! TF.CreationDate,2020-01-12T12:33:47-08:00*
G04 #@! TF.ProjectId,o-scope test,6f2d7363-6f70-4652-9074-6573742e6b69,v01*
G04 #@! TF.SameCoordinates,Original*
G04 #@! TF.FileFunction,Legend,Top*
G04 #@! TF.FilePolarity,Positive*
%FSLAX46Y46*%
G04 Gerber Fmt 4.6, Leading zero omitted, Abs format (unit mm)*
G04 Created by KiCad (PCBNEW (5.1.2)-1) date 2020-01-12 12:33:47*
%MOMM*%
%LPD*%
G04 APERTURE LIST*
%ADD10C,0.152400*%
%ADD11C,0.120000*%
%ADD12C,0.150000*%
G04 APERTURE END LIST*
D10*
X158534100Y-97777300D02*
X162775900Y-97777300D01*
X162775900Y-92519500D02*
X158534100Y-92519500D01*
D11*
X135509000Y-108503400D02*
X137459000Y-108503400D01*
X135509000Y-108503400D02*
X133559000Y-108503400D01*
X135509000Y-103383400D02*
X137459000Y-103383400D01*
X135509000Y-103383400D02*
X132059000Y-103383400D01*
X149733000Y-103764400D02*
X146283000Y-103764400D01*
X149733000Y-103764400D02*
X151683000Y-103764400D01*
X149733000Y-108884400D02*
X147783000Y-108884400D01*
X149733000Y-108884400D02*
X151683000Y-108884400D01*
X149606000Y-86024400D02*
X151556000Y-86024400D01*
X149606000Y-86024400D02*
X147656000Y-86024400D01*
X149606000Y-80904400D02*
X151556000Y-80904400D01*
X149606000Y-80904400D02*
X146156000Y-80904400D01*
X135509000Y-80523400D02*
X132059000Y-80523400D01*
X135509000Y-80523400D02*
X137459000Y-80523400D01*
X135509000Y-85643400D02*
X133559000Y-85643400D01*
X135509000Y-85643400D02*
X137459000Y-85643400D01*
D10*
X164846000Y-75692000D02*
X159004000Y-75692000D01*
X159004000Y-91236800D02*
X164846000Y-91236800D01*
X166890700Y-79209900D02*
X166890700Y-78828900D01*
X166890700Y-78828900D02*
X166636700Y-78828900D01*
X166636700Y-78828900D02*
X166636700Y-79209900D01*
X166636700Y-79209900D02*
X166890700Y-79209900D01*
X156959300Y-85559900D02*
X156959300Y-85178900D01*
X156959300Y-85178900D02*
X157213300Y-85178900D01*
X157213300Y-85178900D02*
X157213300Y-85559900D01*
X157213300Y-85559900D02*
X156959300Y-85559900D01*
D11*
X134496500Y-120590000D02*
X135826500Y-120590000D01*
X134496500Y-121920000D02*
X134496500Y-120590000D01*
X134496500Y-123190000D02*
X137156500Y-123190000D01*
X137156500Y-123190000D02*
X137156500Y-123250000D01*
X134496500Y-123190000D02*
X134496500Y-123250000D01*
X134496500Y-123250000D02*
X137156500Y-123250000D01*
X141354500Y-109312400D02*
X142684500Y-109312400D01*
X141354500Y-110642400D02*
X141354500Y-109312400D01*
X141354500Y-111912400D02*
X144014500Y-111912400D01*
X144014500Y-111912400D02*
X144014500Y-111972400D01*
X141354500Y-111912400D02*
X141354500Y-111972400D01*
X141354500Y-111972400D02*
X144014500Y-111972400D01*
X175595000Y-95072400D02*
X175595000Y-98982400D01*
X175595000Y-98982400D02*
X177465000Y-98982400D01*
X177465000Y-98982400D02*
X177465000Y-95072400D01*
X151351064Y-77474400D02*
X150146936Y-77474400D01*
X151351064Y-79294400D02*
X150146936Y-79294400D01*
X151351064Y-75992400D02*
X150146936Y-75992400D01*
X151351064Y-74172400D02*
X150146936Y-74172400D01*
X137000064Y-76585400D02*
X135795936Y-76585400D01*
X137000064Y-78405400D02*
X135795936Y-78405400D01*
X137003064Y-73791400D02*
X135798936Y-73791400D01*
X137003064Y-75611400D02*
X135798936Y-75611400D01*
X154411000Y-78925336D02*
X154411000Y-80129464D01*
X156231000Y-78925336D02*
X156231000Y-80129464D01*
X129561000Y-83053464D02*
X129561000Y-81849336D01*
X127741000Y-83053464D02*
X127741000Y-81849336D01*
X133763936Y-90174400D02*
X134968064Y-90174400D01*
X133763936Y-91994400D02*
X134968064Y-91994400D01*
X133763936Y-87253400D02*
X134968064Y-87253400D01*
X133763936Y-89073400D02*
X134968064Y-89073400D01*
X151351064Y-112441400D02*
X150146936Y-112441400D01*
X151351064Y-110621400D02*
X150146936Y-110621400D01*
X151348064Y-114304400D02*
X150143936Y-114304400D01*
X151348064Y-116124400D02*
X150143936Y-116124400D01*
X137254064Y-102408400D02*
X136049936Y-102408400D01*
X137254064Y-100588400D02*
X136049936Y-100588400D01*
X137254064Y-98725400D02*
X136049936Y-98725400D01*
X137254064Y-96905400D02*
X136049936Y-96905400D01*
X151986064Y-99487400D02*
X150781936Y-99487400D01*
X151986064Y-97667400D02*
X150781936Y-97667400D01*
X127614000Y-102100464D02*
X127614000Y-100896336D01*
X129434000Y-102100464D02*
X129434000Y-100896336D01*
X133639936Y-114854400D02*
X134844064Y-114854400D01*
X133639936Y-113034400D02*
X134844064Y-113034400D01*
X133636936Y-109986400D02*
X134841064Y-109986400D01*
X133636936Y-111806400D02*
X134841064Y-111806400D01*
X165702064Y-126090000D02*
X164497936Y-126090000D01*
X165702064Y-127910000D02*
X164497936Y-127910000D01*
X165587000Y-94546336D02*
X165587000Y-95750464D01*
X167407000Y-94546336D02*
X167407000Y-95750464D01*
X184679000Y-97401464D02*
X184679000Y-96197336D01*
X182859000Y-97401464D02*
X182859000Y-96197336D01*
X182732000Y-107500336D02*
X182732000Y-108704464D01*
X184552000Y-107500336D02*
X184552000Y-108704464D01*
X184425000Y-115435464D02*
X184425000Y-114231336D01*
X182605000Y-115435464D02*
X182605000Y-114231336D01*
X184171000Y-125785336D02*
X184171000Y-126989464D01*
X182351000Y-125785336D02*
X182351000Y-126989464D01*
X103197000Y-85623400D02*
X104197000Y-84623400D01*
X103197000Y-85623400D02*
X104197000Y-86623400D01*
X117997000Y-93123400D02*
X102997000Y-93123400D01*
X117997000Y-78123400D02*
X117997000Y-93123400D01*
X102997000Y-78123400D02*
X117997000Y-78123400D01*
X102997000Y-93123400D02*
X102997000Y-78123400D01*
X102997000Y-112300400D02*
X102997000Y-97300400D01*
X102997000Y-97300400D02*
X117997000Y-97300400D01*
X117997000Y-97300400D02*
X117997000Y-112300400D01*
X117997000Y-112300400D02*
X102997000Y-112300400D01*
X103197000Y-104800400D02*
X104197000Y-105800400D01*
X103197000Y-104800400D02*
X104197000Y-103800400D01*
X168723000Y-126069400D02*
X173923000Y-126069400D01*
X168723000Y-77749400D02*
X168723000Y-126069400D01*
X173923000Y-75149400D02*
X173923000Y-126069400D01*
X168723000Y-77749400D02*
X171323000Y-77749400D01*
X171323000Y-77749400D02*
X171323000Y-75149400D01*
X171323000Y-75149400D02*
X173923000Y-75149400D01*
X168723000Y-76479400D02*
X168723000Y-75149400D01*
X168723000Y-75149400D02*
X170053000Y-75149400D01*
X140314000Y-75496336D02*
X140314000Y-76700464D01*
X142134000Y-75496336D02*
X142134000Y-76700464D01*
X143362000Y-76700464D02*
X143362000Y-75496336D01*
X145182000Y-76700464D02*
X145182000Y-75496336D01*
X142018936Y-83824400D02*
X143223064Y-83824400D01*
X142018936Y-85644400D02*
X143223064Y-85644400D01*
X127741000Y-88580336D02*
X127741000Y-89784464D01*
X129561000Y-88580336D02*
X129561000Y-89784464D01*
X188235000Y-74353336D02*
X188235000Y-75557464D01*
X186415000Y-74353336D02*
X186415000Y-75557464D01*
X186415000Y-80957336D02*
X186415000Y-82161464D01*
X188235000Y-80957336D02*
X188235000Y-82161464D01*
X186415000Y-86926336D02*
X186415000Y-88130464D01*
X188235000Y-86926336D02*
X188235000Y-88130464D01*
X149003936Y-87888400D02*
X150208064Y-87888400D01*
X149003936Y-89708400D02*
X150208064Y-89708400D01*
X140060000Y-99626336D02*
X140060000Y-100830464D01*
X141880000Y-99626336D02*
X141880000Y-100830464D01*
X145436000Y-100957464D02*
X145436000Y-99753336D01*
X143616000Y-100957464D02*
X143616000Y-99753336D01*
X141891936Y-105033400D02*
X143096064Y-105033400D01*
X141891936Y-106853400D02*
X143096064Y-106853400D01*
X127487000Y-107246336D02*
X127487000Y-108450464D01*
X129307000Y-107246336D02*
X129307000Y-108450464D01*
X133763936Y-126623400D02*
X134968064Y-126623400D01*
X133763936Y-128443400D02*
X134968064Y-128443400D01*
X139224936Y-128570400D02*
X140429064Y-128570400D01*
X139224936Y-126750400D02*
X140429064Y-126750400D01*
X144685936Y-126750400D02*
X145890064Y-126750400D01*
X144685936Y-128570400D02*
X145890064Y-128570400D01*
X150781936Y-100588400D02*
X151986064Y-100588400D01*
X150781936Y-102408400D02*
X151986064Y-102408400D01*
X181631000Y-96197336D02*
X181631000Y-97401464D01*
X179811000Y-96197336D02*
X179811000Y-97401464D01*
X181504000Y-108704464D02*
X181504000Y-107500336D01*
X179684000Y-108704464D02*
X179684000Y-107500336D01*
X181123000Y-114104336D02*
X181123000Y-115308464D01*
X179303000Y-114104336D02*
X179303000Y-115308464D01*
X179303000Y-126992464D02*
X179303000Y-125788336D01*
X181123000Y-126992464D02*
X181123000Y-125788336D01*
X182593064Y-101519400D02*
X181388936Y-101519400D01*
X182593064Y-99699400D02*
X181388936Y-99699400D01*
X181515936Y-104821400D02*
X182720064Y-104821400D01*
X181515936Y-103001400D02*
X182720064Y-103001400D01*
X182466064Y-117987400D02*
X181261936Y-117987400D01*
X182466064Y-119807400D02*
X181261936Y-119807400D01*
X181261936Y-123109400D02*
X182466064Y-123109400D01*
X181261936Y-121289400D02*
X182466064Y-121289400D01*
X126366000Y-79400400D02*
X119506000Y-79400400D01*
X126366000Y-92100400D02*
X119506000Y-92100400D01*
X126366000Y-92100400D02*
X126366000Y-79400400D01*
X119506000Y-92100400D02*
X119506000Y-79400400D01*
X119252000Y-111150400D02*
X119252000Y-98450400D01*
X126112000Y-111150400D02*
X126112000Y-98450400D01*
X126112000Y-111150400D02*
X119252000Y-111150400D01*
X126112000Y-98450400D02*
X119252000Y-98450400D01*
X193690000Y-103744400D02*
X194690000Y-103744400D01*
X194190000Y-103244400D02*
X194190000Y-104244400D01*
X186990000Y-99644400D02*
X186690000Y-99944400D01*
X186390000Y-99644400D02*
X186990000Y-99644400D01*
X186690000Y-99944400D02*
X186390000Y-99644400D01*
X187490000Y-97444400D02*
X187490000Y-99944400D01*
X192290000Y-97444400D02*
X187490000Y-97444400D01*
X187490000Y-110044400D02*
X187490000Y-107244400D01*
X192390000Y-110044400D02*
X187490000Y-110044400D01*
X200890000Y-110044400D02*
X195990000Y-110044400D01*
X200890000Y-97444400D02*
X200890000Y-110044400D01*
X195990000Y-97444400D02*
X200890000Y-97444400D01*
X197190000Y-103744400D02*
G75*
G03X197190000Y-103744400I-3000000J0D01*
G01*
X197190000Y-119340000D02*
G75*
G03X197190000Y-119340000I-3000000J0D01*
G01*
X195990000Y-113040000D02*
X200890000Y-113040000D01*
X200890000Y-113040000D02*
X200890000Y-125640000D01*
X200890000Y-125640000D02*
X195990000Y-125640000D01*
X192390000Y-125640000D02*
X187490000Y-125640000D01*
X187490000Y-125640000D02*
X187490000Y-122840000D01*
X192290000Y-113040000D02*
X187490000Y-113040000D01*
X187490000Y-113040000D02*
X187490000Y-115540000D01*
X186690000Y-115540000D02*
X186390000Y-115240000D01*
X186390000Y-115240000D02*
X186990000Y-115240000D01*
X186990000Y-115240000D02*
X186690000Y-115540000D01*
X194190000Y-118840000D02*
X194190000Y-119840000D01*
X193690000Y-119340000D02*
X194690000Y-119340000D01*
X175327000Y-87588400D02*
X177987000Y-87588400D01*
X175327000Y-87528400D02*
X175327000Y-87588400D01*
X177987000Y-87528400D02*
X177987000Y-87588400D01*
X175327000Y-87528400D02*
X177987000Y-87528400D01*
X175327000Y-86258400D02*
X175327000Y-84928400D01*
X175327000Y-84928400D02*
X176657000Y-84928400D01*
X192789500Y-82952900D02*
X195449500Y-82952900D01*
X192789500Y-82892900D02*
X192789500Y-82952900D01*
X195449500Y-82892900D02*
X195449500Y-82952900D01*
X192789500Y-82892900D02*
X195449500Y-82892900D01*
X192789500Y-81622900D02*
X192789500Y-80292900D01*
X192789500Y-80292900D02*
X194119500Y-80292900D01*
X106620000Y-115510000D02*
X107950000Y-115510000D01*
X106620000Y-116840000D02*
X106620000Y-115510000D01*
X106620000Y-118110000D02*
X109280000Y-118110000D01*
X109280000Y-118110000D02*
X109280000Y-118170000D01*
X106620000Y-118110000D02*
X106620000Y-118170000D01*
X106620000Y-118170000D02*
X109280000Y-118170000D01*
X112970000Y-118170000D02*
X115630000Y-118170000D01*
X112970000Y-118110000D02*
X112970000Y-118170000D01*
X115630000Y-118110000D02*
X115630000Y-118170000D01*
X112970000Y-118110000D02*
X115630000Y-118110000D01*
X112970000Y-116840000D02*
X112970000Y-115510000D01*
X112970000Y-115510000D02*
X114300000Y-115510000D01*
X110239500Y-73434900D02*
X111569500Y-73434900D01*
X110239500Y-74764900D02*
X110239500Y-73434900D01*
X110239500Y-76034900D02*
X112899500Y-76034900D01*
X112899500Y-76034900D02*
X112899500Y-76094900D01*
X110239500Y-76034900D02*
X110239500Y-76094900D01*
X110239500Y-76094900D02*
X112899500Y-76094900D01*
X120018500Y-123345900D02*
X121348500Y-123345900D01*
X120018500Y-124675900D02*
X120018500Y-123345900D01*
X120018500Y-125945900D02*
X122678500Y-125945900D01*
X122678500Y-125945900D02*
X122678500Y-126005900D01*
X120018500Y-125945900D02*
X120018500Y-126005900D01*
X120018500Y-126005900D02*
X122678500Y-126005900D01*
X106366000Y-123091900D02*
X107696000Y-123091900D01*
X106366000Y-124421900D02*
X106366000Y-123091900D01*
X106366000Y-125691900D02*
X109026000Y-125691900D01*
X109026000Y-125691900D02*
X109026000Y-125751900D01*
X106366000Y-125691900D02*
X106366000Y-125751900D01*
X106366000Y-125751900D02*
X109026000Y-125751900D01*
X153102000Y-124400000D02*
X154432000Y-124400000D01*
X153102000Y-125730000D02*
X153102000Y-124400000D01*
X153102000Y-127000000D02*
X155762000Y-127000000D01*
X155762000Y-127000000D02*
X155762000Y-127060000D01*
X153102000Y-127000000D02*
X153102000Y-127060000D01*
X153102000Y-127060000D02*
X155762000Y-127060000D01*
X152975000Y-122259400D02*
X155635000Y-122259400D01*
X152975000Y-122199400D02*
X152975000Y-122259400D01*
X155635000Y-122199400D02*
X155635000Y-122259400D01*
X152975000Y-122199400D02*
X155635000Y-122199400D01*
X152975000Y-120929400D02*
X152975000Y-119599400D01*
X152975000Y-119599400D02*
X154305000Y-119599400D01*
X118050000Y-73244400D02*
X119380000Y-73244400D01*
X118050000Y-74574400D02*
X118050000Y-73244400D01*
X118050000Y-75844400D02*
X120710000Y-75844400D01*
X120710000Y-75844400D02*
X120710000Y-75904400D01*
X118050000Y-75844400D02*
X118050000Y-75904400D01*
X118050000Y-75904400D02*
X120710000Y-75904400D01*
X127321000Y-73625400D02*
X128651000Y-73625400D01*
X127321000Y-74955400D02*
X127321000Y-73625400D01*
X127321000Y-76225400D02*
X129981000Y-76225400D01*
X129981000Y-76225400D02*
X129981000Y-76285400D01*
X127321000Y-76225400D02*
X127321000Y-76285400D01*
X127321000Y-76285400D02*
X129981000Y-76285400D01*
X153737000Y-89366400D02*
X156397000Y-89366400D01*
X153737000Y-89306400D02*
X153737000Y-89366400D01*
X156397000Y-89306400D02*
X156397000Y-89366400D01*
X153737000Y-89306400D02*
X156397000Y-89306400D01*
X153737000Y-88036400D02*
X153737000Y-86706400D01*
X153737000Y-86706400D02*
X155067000Y-86706400D01*
X153610000Y-76260000D02*
X156270000Y-76260000D01*
X153610000Y-76200000D02*
X153610000Y-76260000D01*
X156270000Y-76200000D02*
X156270000Y-76260000D01*
X153610000Y-76200000D02*
X156270000Y-76200000D01*
X153610000Y-74930000D02*
X153610000Y-73600000D01*
X153610000Y-73600000D02*
X154940000Y-73600000D01*
X138497000Y-88357400D02*
X139827000Y-88357400D01*
X138497000Y-89687400D02*
X138497000Y-88357400D01*
X138497000Y-90957400D02*
X141157000Y-90957400D01*
X141157000Y-90957400D02*
X141157000Y-91017400D01*
X138497000Y-90957400D02*
X138497000Y-91017400D01*
X138497000Y-91017400D02*
X141157000Y-91017400D01*
X164659000Y-118068400D02*
X167319000Y-118068400D01*
X164659000Y-118008400D02*
X164659000Y-118068400D01*
X167319000Y-118008400D02*
X167319000Y-118068400D01*
X164659000Y-118008400D02*
X167319000Y-118008400D01*
X164659000Y-116738400D02*
X164659000Y-115408400D01*
X164659000Y-115408400D02*
X165989000Y-115408400D01*
X119066000Y-112741400D02*
X120396000Y-112741400D01*
X119066000Y-114071400D02*
X119066000Y-112741400D01*
X119066000Y-115341400D02*
X121726000Y-115341400D01*
X121726000Y-115341400D02*
X121726000Y-115401400D01*
X119066000Y-115341400D02*
X119066000Y-115401400D01*
X119066000Y-115401400D02*
X121726000Y-115401400D01*
X124527000Y-112868400D02*
X125857000Y-112868400D01*
X124527000Y-114198400D02*
X124527000Y-112868400D01*
X124527000Y-115468400D02*
X127187000Y-115468400D01*
X127187000Y-115468400D02*
X127187000Y-115528400D01*
X124527000Y-115468400D02*
X124527000Y-115528400D01*
X124527000Y-115528400D02*
X127187000Y-115528400D01*
X143577000Y-113249400D02*
X144907000Y-113249400D01*
X143577000Y-114579400D02*
X143577000Y-113249400D01*
X143577000Y-115849400D02*
X146237000Y-115849400D01*
X146237000Y-115849400D02*
X146237000Y-115909400D01*
X143577000Y-115849400D02*
X143577000Y-115909400D01*
X143577000Y-115909400D02*
X146237000Y-115909400D01*
X175327000Y-91779400D02*
X177987000Y-91779400D01*
X175327000Y-91719400D02*
X175327000Y-91779400D01*
X177987000Y-91719400D02*
X177987000Y-91779400D01*
X175327000Y-91719400D02*
X177987000Y-91719400D01*
X175327000Y-90449400D02*
X175327000Y-89119400D01*
X175327000Y-89119400D02*
X176657000Y-89119400D01*
X138243000Y-115782400D02*
X140903000Y-115782400D01*
X138243000Y-115722400D02*
X138243000Y-115782400D01*
X140903000Y-115722400D02*
X140903000Y-115782400D01*
X138243000Y-115722400D02*
X140903000Y-115722400D01*
X138243000Y-114452400D02*
X138243000Y-113122400D01*
X138243000Y-113122400D02*
X139573000Y-113122400D01*
X144974000Y-95271900D02*
X144974000Y-93941900D01*
X146304000Y-95271900D02*
X144974000Y-95271900D01*
X147574000Y-95271900D02*
X147574000Y-92611900D01*
X147574000Y-92611900D02*
X147634000Y-92611900D01*
X147574000Y-95271900D02*
X147634000Y-95271900D01*
X147634000Y-95271900D02*
X147634000Y-92611900D01*
X153539500Y-95208400D02*
X153539500Y-92548400D01*
X153479500Y-95208400D02*
X153539500Y-95208400D01*
X153479500Y-92548400D02*
X153539500Y-92548400D01*
X153479500Y-95208400D02*
X153479500Y-92548400D01*
X152209500Y-95208400D02*
X150879500Y-95208400D01*
X150879500Y-95208400D02*
X150879500Y-93878400D01*
D10*
X182841900Y-78422500D02*
X178600100Y-78422500D01*
X178600100Y-83680300D02*
X182841900Y-83680300D01*
X164973000Y-98552000D02*
X159131000Y-98552000D01*
X159131000Y-114096800D02*
X164973000Y-114096800D01*
X167017700Y-102069900D02*
X167017700Y-101688900D01*
X167017700Y-101688900D02*
X166763700Y-101688900D01*
X166763700Y-101688900D02*
X166763700Y-102069900D01*
X166763700Y-102069900D02*
X167017700Y-102069900D01*
X157086300Y-108419900D02*
X157086300Y-108038900D01*
X157086300Y-108038900D02*
X157340300Y-108038900D01*
X157340300Y-108038900D02*
X157340300Y-108419900D01*
X157340300Y-108419900D02*
X157086300Y-108419900D01*
X141516100Y-124193300D02*
X145757900Y-124193300D01*
X145757900Y-118935500D02*
X141516100Y-118935500D01*
D11*
X163576000Y-120274400D02*
X161626000Y-120274400D01*
X163576000Y-120274400D02*
X165526000Y-120274400D01*
X163576000Y-125394400D02*
X161626000Y-125394400D01*
X163576000Y-125394400D02*
X167026000Y-125394400D01*
D12*
X155575095Y-91679780D02*
X155575095Y-92489304D01*
X155622714Y-92584542D01*
X155670333Y-92632161D01*
X155765571Y-92679780D01*
X155956047Y-92679780D01*
X156051285Y-92632161D01*
X156098904Y-92584542D01*
X156146523Y-92489304D01*
X156146523Y-91679780D01*
X156670333Y-92679780D02*
X156860809Y-92679780D01*
X156956047Y-92632161D01*
X157003666Y-92584542D01*
X157098904Y-92441685D01*
X157146523Y-92251209D01*
X157146523Y-91870257D01*
X157098904Y-91775019D01*
X157051285Y-91727400D01*
X156956047Y-91679780D01*
X156765571Y-91679780D01*
X156670333Y-91727400D01*
X156622714Y-91775019D01*
X156575095Y-91870257D01*
X156575095Y-92108352D01*
X156622714Y-92203590D01*
X156670333Y-92251209D01*
X156765571Y-92298828D01*
X156956047Y-92298828D01*
X157051285Y-92251209D01*
X157098904Y-92203590D01*
X157146523Y-92108352D01*
X161012142Y-92608400D02*
X161059761Y-92560780D01*
X161107380Y-92608400D01*
X161059761Y-92656019D01*
X161012142Y-92608400D01*
X161107380Y-92608400D01*
X159042100Y-92175080D02*
X159042100Y-92413176D01*
X158804004Y-92317938D02*
X159042100Y-92413176D01*
X159280195Y-92317938D01*
X158899242Y-92603652D02*
X159042100Y-92413176D01*
X159184957Y-92603652D01*
X159042100Y-92175080D02*
X159042100Y-92413176D01*
X158804004Y-92317938D02*
X159042100Y-92413176D01*
X159280195Y-92317938D01*
X158899242Y-92603652D02*
X159042100Y-92413176D01*
X159184957Y-92603652D01*
X130937095Y-101839780D02*
X130937095Y-102649304D01*
X130984714Y-102744542D01*
X131032333Y-102792161D01*
X131127571Y-102839780D01*
X131318047Y-102839780D01*
X131413285Y-102792161D01*
X131460904Y-102744542D01*
X131508523Y-102649304D01*
X131508523Y-101839780D01*
X131889476Y-101839780D02*
X132556142Y-101839780D01*
X132127571Y-102839780D01*
X145415095Y-102347780D02*
X145415095Y-103157304D01*
X145462714Y-103252542D01*
X145510333Y-103300161D01*
X145605571Y-103347780D01*
X145796047Y-103347780D01*
X145891285Y-103300161D01*
X145938904Y-103252542D01*
X145986523Y-103157304D01*
X145986523Y-102347780D01*
X146891285Y-102347780D02*
X146700809Y-102347780D01*
X146605571Y-102395400D01*
X146557952Y-102443019D01*
X146462714Y-102585876D01*
X146415095Y-102776352D01*
X146415095Y-103157304D01*
X146462714Y-103252542D01*
X146510333Y-103300161D01*
X146605571Y-103347780D01*
X146796047Y-103347780D01*
X146891285Y-103300161D01*
X146938904Y-103252542D01*
X146986523Y-103157304D01*
X146986523Y-102919209D01*
X146938904Y-102823971D01*
X146891285Y-102776352D01*
X146796047Y-102728733D01*
X146605571Y-102728733D01*
X146510333Y-102776352D01*
X146462714Y-102823971D01*
X146415095Y-102919209D01*
X145796095Y-79233780D02*
X145796095Y-80043304D01*
X145843714Y-80138542D01*
X145891333Y-80186161D01*
X145986571Y-80233780D01*
X146177047Y-80233780D01*
X146272285Y-80186161D01*
X146319904Y-80138542D01*
X146367523Y-80043304D01*
X146367523Y-79233780D01*
X146796095Y-79329019D02*
X146843714Y-79281400D01*
X146938952Y-79233780D01*
X147177047Y-79233780D01*
X147272285Y-79281400D01*
X147319904Y-79329019D01*
X147367523Y-79424257D01*
X147367523Y-79519495D01*
X147319904Y-79662352D01*
X146748476Y-80233780D01*
X147367523Y-80233780D01*
X132080095Y-79135780D02*
X132080095Y-79945304D01*
X132127714Y-80040542D01*
X132175333Y-80088161D01*
X132270571Y-80135780D01*
X132461047Y-80135780D01*
X132556285Y-80088161D01*
X132603904Y-80040542D01*
X132651523Y-79945304D01*
X132651523Y-79135780D01*
X133032476Y-79135780D02*
X133651523Y-79135780D01*
X133318190Y-79516733D01*
X133461047Y-79516733D01*
X133556285Y-79564352D01*
X133603904Y-79611971D01*
X133651523Y-79707209D01*
X133651523Y-79945304D01*
X133603904Y-80040542D01*
X133556285Y-80088161D01*
X133461047Y-80135780D01*
X133175333Y-80135780D01*
X133080095Y-80088161D01*
X133032476Y-80040542D01*
X162012380Y-84327904D02*
X162821904Y-84327904D01*
X162917142Y-84280285D01*
X162964761Y-84232666D01*
X163012380Y-84137428D01*
X163012380Y-83946952D01*
X162964761Y-83851714D01*
X162917142Y-83804095D01*
X162821904Y-83756476D01*
X162012380Y-83756476D01*
X163012380Y-82756476D02*
X163012380Y-83327904D01*
X163012380Y-83042190D02*
X162012380Y-83042190D01*
X162155238Y-83137428D01*
X162250476Y-83232666D01*
X162298095Y-83327904D01*
X160234380Y-88161238D02*
X160234380Y-87589809D01*
X161234380Y-87875523D02*
X160234380Y-87875523D01*
X161234380Y-86780285D02*
X161234380Y-87256476D01*
X160234380Y-87256476D01*
X161139142Y-85875523D02*
X161186761Y-85923142D01*
X161234380Y-86066000D01*
X161234380Y-86161238D01*
X161186761Y-86304095D01*
X161091523Y-86399333D01*
X160996285Y-86446952D01*
X160805809Y-86494571D01*
X160662952Y-86494571D01*
X160472476Y-86446952D01*
X160377238Y-86399333D01*
X160282000Y-86304095D01*
X160234380Y-86161238D01*
X160234380Y-86066000D01*
X160282000Y-85923142D01*
X160329619Y-85875523D01*
X160234380Y-84970761D02*
X160234380Y-85446952D01*
X160710571Y-85494571D01*
X160662952Y-85446952D01*
X160615333Y-85351714D01*
X160615333Y-85113619D01*
X160662952Y-85018380D01*
X160710571Y-84970761D01*
X160805809Y-84923142D01*
X161043904Y-84923142D01*
X161139142Y-84970761D01*
X161186761Y-85018380D01*
X161234380Y-85113619D01*
X161234380Y-85351714D01*
X161186761Y-85446952D01*
X161139142Y-85494571D01*
X160234380Y-84018380D02*
X160234380Y-84494571D01*
X160710571Y-84542190D01*
X160662952Y-84494571D01*
X160615333Y-84399333D01*
X160615333Y-84161238D01*
X160662952Y-84066000D01*
X160710571Y-84018380D01*
X160805809Y-83970761D01*
X161043904Y-83970761D01*
X161139142Y-84018380D01*
X161186761Y-84066000D01*
X161234380Y-84161238D01*
X161234380Y-84399333D01*
X161186761Y-84494571D01*
X161139142Y-84542190D01*
X160567714Y-83113619D02*
X161234380Y-83113619D01*
X160186761Y-83351714D02*
X160901047Y-83589809D01*
X160901047Y-82970761D01*
X160234380Y-82399333D02*
X160234380Y-82304095D01*
X160282000Y-82208857D01*
X160329619Y-82161238D01*
X160424857Y-82113619D01*
X160615333Y-82066000D01*
X160853428Y-82066000D01*
X161043904Y-82113619D01*
X161139142Y-82161238D01*
X161186761Y-82208857D01*
X161234380Y-82304095D01*
X161234380Y-82399333D01*
X161186761Y-82494571D01*
X161139142Y-82542190D01*
X161043904Y-82589809D01*
X160853428Y-82637428D01*
X160615333Y-82637428D01*
X160424857Y-82589809D01*
X160329619Y-82542190D01*
X160282000Y-82494571D01*
X160234380Y-82399333D01*
X161139142Y-81066000D02*
X161186761Y-81113619D01*
X161234380Y-81256476D01*
X161234380Y-81351714D01*
X161186761Y-81494571D01*
X161091523Y-81589809D01*
X160996285Y-81637428D01*
X160805809Y-81685047D01*
X160662952Y-81685047D01*
X160472476Y-81637428D01*
X160377238Y-81589809D01*
X160282000Y-81494571D01*
X160234380Y-81351714D01*
X160234380Y-81256476D01*
X160282000Y-81113619D01*
X160329619Y-81066000D01*
X161234380Y-80637428D02*
X160234380Y-80637428D01*
X161234380Y-80066000D01*
X160234380Y-80066000D01*
X161186761Y-79637428D02*
X161234380Y-79494571D01*
X161234380Y-79256476D01*
X161186761Y-79161238D01*
X161139142Y-79113619D01*
X161043904Y-79066000D01*
X160948666Y-79066000D01*
X160853428Y-79113619D01*
X160805809Y-79161238D01*
X160758190Y-79256476D01*
X160710571Y-79446952D01*
X160662952Y-79542190D01*
X160615333Y-79589809D01*
X160520095Y-79637428D01*
X160424857Y-79637428D01*
X160329619Y-79589809D01*
X160282000Y-79542190D01*
X160234380Y-79446952D01*
X160234380Y-79208857D01*
X160282000Y-79066000D01*
X165557200Y-91603580D02*
X165557200Y-91841676D01*
X165319104Y-91746438D02*
X165557200Y-91841676D01*
X165795295Y-91746438D01*
X165414342Y-92032152D02*
X165557200Y-91841676D01*
X165700057Y-92032152D01*
X165557200Y-91603580D02*
X165557200Y-91841676D01*
X165319104Y-91746438D02*
X165557200Y-91841676D01*
X165795295Y-91746438D01*
X165414342Y-92032152D02*
X165557200Y-91841676D01*
X165700057Y-92032152D01*
X135136023Y-119375714D02*
X135136023Y-120185238D01*
X135088404Y-120280476D01*
X135040785Y-120328095D01*
X134945547Y-120375714D01*
X134802690Y-120375714D01*
X134707452Y-120328095D01*
X135136023Y-119994761D02*
X135040785Y-120042380D01*
X134850309Y-120042380D01*
X134755071Y-119994761D01*
X134707452Y-119947142D01*
X134659833Y-119851904D01*
X134659833Y-119566190D01*
X134707452Y-119470952D01*
X134755071Y-119423333D01*
X134850309Y-119375714D01*
X135040785Y-119375714D01*
X135136023Y-119423333D01*
X135612214Y-119375714D02*
X135612214Y-120042380D01*
X135612214Y-119470952D02*
X135659833Y-119423333D01*
X135755071Y-119375714D01*
X135897928Y-119375714D01*
X135993166Y-119423333D01*
X136040785Y-119518571D01*
X136040785Y-120042380D01*
X136945547Y-120042380D02*
X136945547Y-119042380D01*
X136945547Y-119994761D02*
X136850309Y-120042380D01*
X136659833Y-120042380D01*
X136564595Y-119994761D01*
X136516976Y-119947142D01*
X136469357Y-119851904D01*
X136469357Y-119566190D01*
X136516976Y-119470952D01*
X136564595Y-119423333D01*
X136659833Y-119375714D01*
X136850309Y-119375714D01*
X136945547Y-119423333D01*
X140946404Y-107764780D02*
X141517833Y-107764780D01*
X141232119Y-108764780D02*
X141232119Y-107764780D01*
X141851166Y-108764780D02*
X141851166Y-107764780D01*
X142232119Y-107764780D01*
X142327357Y-107812400D01*
X142374976Y-107860019D01*
X142422595Y-107955257D01*
X142422595Y-108098114D01*
X142374976Y-108193352D01*
X142327357Y-108240971D01*
X142232119Y-108288590D01*
X141851166Y-108288590D01*
X143374976Y-108764780D02*
X142803547Y-108764780D01*
X143089261Y-108764780D02*
X143089261Y-107764780D01*
X142994023Y-107907638D01*
X142898785Y-108002876D01*
X142803547Y-108050495D01*
X144327357Y-108764780D02*
X143755928Y-108764780D01*
X144041642Y-108764780D02*
X144041642Y-107764780D01*
X143946404Y-107907638D01*
X143851166Y-108002876D01*
X143755928Y-108050495D01*
X175887142Y-93981542D02*
X175839523Y-94029161D01*
X175696666Y-94076780D01*
X175601428Y-94076780D01*
X175458571Y-94029161D01*
X175363333Y-93933923D01*
X175315714Y-93838685D01*
X175268095Y-93648209D01*
X175268095Y-93505352D01*
X175315714Y-93314876D01*
X175363333Y-93219638D01*
X175458571Y-93124400D01*
X175601428Y-93076780D01*
X175696666Y-93076780D01*
X175839523Y-93124400D01*
X175887142Y-93172019D01*
X176268095Y-93172019D02*
X176315714Y-93124400D01*
X176410952Y-93076780D01*
X176649047Y-93076780D01*
X176744285Y-93124400D01*
X176791904Y-93172019D01*
X176839523Y-93267257D01*
X176839523Y-93362495D01*
X176791904Y-93505352D01*
X176220476Y-94076780D01*
X176839523Y-94076780D01*
X177458571Y-93076780D02*
X177553809Y-93076780D01*
X177649047Y-93124400D01*
X177696666Y-93172019D01*
X177744285Y-93267257D01*
X177791904Y-93457733D01*
X177791904Y-93695828D01*
X177744285Y-93886304D01*
X177696666Y-93981542D01*
X177649047Y-94029161D01*
X177553809Y-94076780D01*
X177458571Y-94076780D01*
X177363333Y-94029161D01*
X177315714Y-93981542D01*
X177268095Y-93886304D01*
X177220476Y-93695828D01*
X177220476Y-93457733D01*
X177268095Y-93267257D01*
X177315714Y-93172019D01*
X177363333Y-93124400D01*
X177458571Y-93076780D01*
X147153333Y-78741542D02*
X147105714Y-78789161D01*
X146962857Y-78836780D01*
X146867619Y-78836780D01*
X146724761Y-78789161D01*
X146629523Y-78693923D01*
X146581904Y-78598685D01*
X146534285Y-78408209D01*
X146534285Y-78265352D01*
X146581904Y-78074876D01*
X146629523Y-77979638D01*
X146724761Y-77884400D01*
X146867619Y-77836780D01*
X146962857Y-77836780D01*
X147105714Y-77884400D01*
X147153333Y-77932019D01*
X148105714Y-78836780D02*
X147534285Y-78836780D01*
X147820000Y-78836780D02*
X147820000Y-77836780D01*
X147724761Y-77979638D01*
X147629523Y-78074876D01*
X147534285Y-78122495D01*
X147280333Y-75312542D02*
X147232714Y-75360161D01*
X147089857Y-75407780D01*
X146994619Y-75407780D01*
X146851761Y-75360161D01*
X146756523Y-75264923D01*
X146708904Y-75169685D01*
X146661285Y-74979209D01*
X146661285Y-74836352D01*
X146708904Y-74645876D01*
X146756523Y-74550638D01*
X146851761Y-74455400D01*
X146994619Y-74407780D01*
X147089857Y-74407780D01*
X147232714Y-74455400D01*
X147280333Y-74503019D01*
X147661285Y-74503019D02*
X147708904Y-74455400D01*
X147804142Y-74407780D01*
X148042238Y-74407780D01*
X148137476Y-74455400D01*
X148185095Y-74503019D01*
X148232714Y-74598257D01*
X148232714Y-74693495D01*
X148185095Y-74836352D01*
X147613666Y-75407780D01*
X148232714Y-75407780D01*
X132929333Y-77217542D02*
X132881714Y-77265161D01*
X132738857Y-77312780D01*
X132643619Y-77312780D01*
X132500761Y-77265161D01*
X132405523Y-77169923D01*
X132357904Y-77074685D01*
X132310285Y-76884209D01*
X132310285Y-76741352D01*
X132357904Y-76550876D01*
X132405523Y-76455638D01*
X132500761Y-76360400D01*
X132643619Y-76312780D01*
X132738857Y-76312780D01*
X132881714Y-76360400D01*
X132929333Y-76408019D01*
X133262666Y-76312780D02*
X133881714Y-76312780D01*
X133548380Y-76693733D01*
X133691238Y-76693733D01*
X133786476Y-76741352D01*
X133834095Y-76788971D01*
X133881714Y-76884209D01*
X133881714Y-77122304D01*
X133834095Y-77217542D01*
X133786476Y-77265161D01*
X133691238Y-77312780D01*
X133405523Y-77312780D01*
X133310285Y-77265161D01*
X133262666Y-77217542D01*
X132929333Y-75058542D02*
X132881714Y-75106161D01*
X132738857Y-75153780D01*
X132643619Y-75153780D01*
X132500761Y-75106161D01*
X132405523Y-75010923D01*
X132357904Y-74915685D01*
X132310285Y-74725209D01*
X132310285Y-74582352D01*
X132357904Y-74391876D01*
X132405523Y-74296638D01*
X132500761Y-74201400D01*
X132643619Y-74153780D01*
X132738857Y-74153780D01*
X132881714Y-74201400D01*
X132929333Y-74249019D01*
X133786476Y-74487114D02*
X133786476Y-75153780D01*
X133548380Y-74106161D02*
X133310285Y-74820447D01*
X133929333Y-74820447D01*
X155154333Y-83059542D02*
X155106714Y-83107161D01*
X154963857Y-83154780D01*
X154868619Y-83154780D01*
X154725761Y-83107161D01*
X154630523Y-83011923D01*
X154582904Y-82916685D01*
X154535285Y-82726209D01*
X154535285Y-82583352D01*
X154582904Y-82392876D01*
X154630523Y-82297638D01*
X154725761Y-82202400D01*
X154868619Y-82154780D01*
X154963857Y-82154780D01*
X155106714Y-82202400D01*
X155154333Y-82250019D01*
X156059095Y-82154780D02*
X155582904Y-82154780D01*
X155535285Y-82630971D01*
X155582904Y-82583352D01*
X155678142Y-82535733D01*
X155916238Y-82535733D01*
X156011476Y-82583352D01*
X156059095Y-82630971D01*
X156106714Y-82726209D01*
X156106714Y-82964304D01*
X156059095Y-83059542D01*
X156011476Y-83107161D01*
X155916238Y-83154780D01*
X155678142Y-83154780D01*
X155582904Y-83107161D01*
X155535285Y-83059542D01*
X128484333Y-79760542D02*
X128436714Y-79808161D01*
X128293857Y-79855780D01*
X128198619Y-79855780D01*
X128055761Y-79808161D01*
X127960523Y-79712923D01*
X127912904Y-79617685D01*
X127865285Y-79427209D01*
X127865285Y-79284352D01*
X127912904Y-79093876D01*
X127960523Y-78998638D01*
X128055761Y-78903400D01*
X128198619Y-78855780D01*
X128293857Y-78855780D01*
X128436714Y-78903400D01*
X128484333Y-78951019D01*
X129341476Y-78855780D02*
X129151000Y-78855780D01*
X129055761Y-78903400D01*
X129008142Y-78951019D01*
X128912904Y-79093876D01*
X128865285Y-79284352D01*
X128865285Y-79665304D01*
X128912904Y-79760542D01*
X128960523Y-79808161D01*
X129055761Y-79855780D01*
X129246238Y-79855780D01*
X129341476Y-79808161D01*
X129389095Y-79760542D01*
X129436714Y-79665304D01*
X129436714Y-79427209D01*
X129389095Y-79331971D01*
X129341476Y-79284352D01*
X129246238Y-79236733D01*
X129055761Y-79236733D01*
X128960523Y-79284352D01*
X128912904Y-79331971D01*
X128865285Y-79427209D01*
X131675142Y-91251066D02*
X131722761Y-91298685D01*
X131770380Y-91441542D01*
X131770380Y-91536780D01*
X131722761Y-91679638D01*
X131627523Y-91774876D01*
X131532285Y-91822495D01*
X131341809Y-91870114D01*
X131198952Y-91870114D01*
X131008476Y-91822495D01*
X130913238Y-91774876D01*
X130818000Y-91679638D01*
X130770380Y-91536780D01*
X130770380Y-91441542D01*
X130818000Y-91298685D01*
X130865619Y-91251066D01*
X130770380Y-90917733D02*
X130770380Y-90251066D01*
X131770380Y-90679638D01*
X131675142Y-88457066D02*
X131722761Y-88504685D01*
X131770380Y-88647542D01*
X131770380Y-88742780D01*
X131722761Y-88885638D01*
X131627523Y-88980876D01*
X131532285Y-89028495D01*
X131341809Y-89076114D01*
X131198952Y-89076114D01*
X131008476Y-89028495D01*
X130913238Y-88980876D01*
X130818000Y-88885638D01*
X130770380Y-88742780D01*
X130770380Y-88647542D01*
X130818000Y-88504685D01*
X130865619Y-88457066D01*
X131198952Y-87885638D02*
X131151333Y-87980876D01*
X131103714Y-88028495D01*
X131008476Y-88076114D01*
X130960857Y-88076114D01*
X130865619Y-88028495D01*
X130818000Y-87980876D01*
X130770380Y-87885638D01*
X130770380Y-87695161D01*
X130818000Y-87599923D01*
X130865619Y-87552304D01*
X130960857Y-87504685D01*
X131008476Y-87504685D01*
X131103714Y-87552304D01*
X131151333Y-87599923D01*
X131198952Y-87695161D01*
X131198952Y-87885638D01*
X131246571Y-87980876D01*
X131294190Y-88028495D01*
X131389428Y-88076114D01*
X131579904Y-88076114D01*
X131675142Y-88028495D01*
X131722761Y-87980876D01*
X131770380Y-87885638D01*
X131770380Y-87695161D01*
X131722761Y-87599923D01*
X131675142Y-87552304D01*
X131579904Y-87504685D01*
X131389428Y-87504685D01*
X131294190Y-87552304D01*
X131246571Y-87599923D01*
X131198952Y-87695161D01*
X148058142Y-111952066D02*
X148105761Y-111999685D01*
X148153380Y-112142542D01*
X148153380Y-112237780D01*
X148105761Y-112380638D01*
X148010523Y-112475876D01*
X147915285Y-112523495D01*
X147724809Y-112571114D01*
X147581952Y-112571114D01*
X147391476Y-112523495D01*
X147296238Y-112475876D01*
X147201000Y-112380638D01*
X147153380Y-112237780D01*
X147153380Y-112142542D01*
X147201000Y-111999685D01*
X147248619Y-111952066D01*
X148153380Y-111475876D02*
X148153380Y-111285400D01*
X148105761Y-111190161D01*
X148058142Y-111142542D01*
X147915285Y-111047304D01*
X147724809Y-110999685D01*
X147343857Y-110999685D01*
X147248619Y-111047304D01*
X147201000Y-111094923D01*
X147153380Y-111190161D01*
X147153380Y-111380638D01*
X147201000Y-111475876D01*
X147248619Y-111523495D01*
X147343857Y-111571114D01*
X147581952Y-111571114D01*
X147677190Y-111523495D01*
X147724809Y-111475876D01*
X147772428Y-111380638D01*
X147772428Y-111190161D01*
X147724809Y-111094923D01*
X147677190Y-111047304D01*
X147581952Y-110999685D01*
X148058142Y-115857257D02*
X148105761Y-115904876D01*
X148153380Y-116047733D01*
X148153380Y-116142971D01*
X148105761Y-116285828D01*
X148010523Y-116381066D01*
X147915285Y-116428685D01*
X147724809Y-116476304D01*
X147581952Y-116476304D01*
X147391476Y-116428685D01*
X147296238Y-116381066D01*
X147201000Y-116285828D01*
X147153380Y-116142971D01*
X147153380Y-116047733D01*
X147201000Y-115904876D01*
X147248619Y-115857257D01*
X148153380Y-114904876D02*
X148153380Y-115476304D01*
X148153380Y-115190590D02*
X147153380Y-115190590D01*
X147296238Y-115285828D01*
X147391476Y-115381066D01*
X147439095Y-115476304D01*
X147153380Y-114285828D02*
X147153380Y-114190590D01*
X147201000Y-114095352D01*
X147248619Y-114047733D01*
X147343857Y-114000114D01*
X147534333Y-113952495D01*
X147772428Y-113952495D01*
X147962904Y-114000114D01*
X148058142Y-114047733D01*
X148105761Y-114095352D01*
X148153380Y-114190590D01*
X148153380Y-114285828D01*
X148105761Y-114381066D01*
X148058142Y-114428685D01*
X147962904Y-114476304D01*
X147772428Y-114523923D01*
X147534333Y-114523923D01*
X147343857Y-114476304D01*
X147248619Y-114428685D01*
X147201000Y-114381066D01*
X147153380Y-114285828D01*
X133961142Y-102014257D02*
X134008761Y-102061876D01*
X134056380Y-102204733D01*
X134056380Y-102299971D01*
X134008761Y-102442828D01*
X133913523Y-102538066D01*
X133818285Y-102585685D01*
X133627809Y-102633304D01*
X133484952Y-102633304D01*
X133294476Y-102585685D01*
X133199238Y-102538066D01*
X133104000Y-102442828D01*
X133056380Y-102299971D01*
X133056380Y-102204733D01*
X133104000Y-102061876D01*
X133151619Y-102014257D01*
X134056380Y-101061876D02*
X134056380Y-101633304D01*
X134056380Y-101347590D02*
X133056380Y-101347590D01*
X133199238Y-101442828D01*
X133294476Y-101538066D01*
X133342095Y-101633304D01*
X134056380Y-100109495D02*
X134056380Y-100680923D01*
X134056380Y-100395209D02*
X133056380Y-100395209D01*
X133199238Y-100490447D01*
X133294476Y-100585685D01*
X133342095Y-100680923D01*
X133834142Y-98458257D02*
X133881761Y-98505876D01*
X133929380Y-98648733D01*
X133929380Y-98743971D01*
X133881761Y-98886828D01*
X133786523Y-98982066D01*
X133691285Y-99029685D01*
X133500809Y-99077304D01*
X133357952Y-99077304D01*
X133167476Y-99029685D01*
X133072238Y-98982066D01*
X132977000Y-98886828D01*
X132929380Y-98743971D01*
X132929380Y-98648733D01*
X132977000Y-98505876D01*
X133024619Y-98458257D01*
X133929380Y-97505876D02*
X133929380Y-98077304D01*
X133929380Y-97791590D02*
X132929380Y-97791590D01*
X133072238Y-97886828D01*
X133167476Y-97982066D01*
X133215095Y-98077304D01*
X133024619Y-97124923D02*
X132977000Y-97077304D01*
X132929380Y-96982066D01*
X132929380Y-96743971D01*
X132977000Y-96648733D01*
X133024619Y-96601114D01*
X133119857Y-96553495D01*
X133215095Y-96553495D01*
X133357952Y-96601114D01*
X133929380Y-97172542D01*
X133929380Y-96553495D01*
X148693142Y-99347257D02*
X148740761Y-99394876D01*
X148788380Y-99537733D01*
X148788380Y-99632971D01*
X148740761Y-99775828D01*
X148645523Y-99871066D01*
X148550285Y-99918685D01*
X148359809Y-99966304D01*
X148216952Y-99966304D01*
X148026476Y-99918685D01*
X147931238Y-99871066D01*
X147836000Y-99775828D01*
X147788380Y-99632971D01*
X147788380Y-99537733D01*
X147836000Y-99394876D01*
X147883619Y-99347257D01*
X148788380Y-98394876D02*
X148788380Y-98966304D01*
X148788380Y-98680590D02*
X147788380Y-98680590D01*
X147931238Y-98775828D01*
X148026476Y-98871066D01*
X148074095Y-98966304D01*
X147788380Y-98061542D02*
X147788380Y-97442495D01*
X148169333Y-97775828D01*
X148169333Y-97632971D01*
X148216952Y-97537733D01*
X148264571Y-97490114D01*
X148359809Y-97442495D01*
X148597904Y-97442495D01*
X148693142Y-97490114D01*
X148740761Y-97537733D01*
X148788380Y-97632971D01*
X148788380Y-97918685D01*
X148740761Y-98013923D01*
X148693142Y-98061542D01*
X127881142Y-98553542D02*
X127833523Y-98601161D01*
X127690666Y-98648780D01*
X127595428Y-98648780D01*
X127452571Y-98601161D01*
X127357333Y-98505923D01*
X127309714Y-98410685D01*
X127262095Y-98220209D01*
X127262095Y-98077352D01*
X127309714Y-97886876D01*
X127357333Y-97791638D01*
X127452571Y-97696400D01*
X127595428Y-97648780D01*
X127690666Y-97648780D01*
X127833523Y-97696400D01*
X127881142Y-97744019D01*
X128833523Y-98648780D02*
X128262095Y-98648780D01*
X128547809Y-98648780D02*
X128547809Y-97648780D01*
X128452571Y-97791638D01*
X128357333Y-97886876D01*
X128262095Y-97934495D01*
X129738285Y-97648780D02*
X129262095Y-97648780D01*
X129214476Y-98124971D01*
X129262095Y-98077352D01*
X129357333Y-98029733D01*
X129595428Y-98029733D01*
X129690666Y-98077352D01*
X129738285Y-98124971D01*
X129785904Y-98220209D01*
X129785904Y-98458304D01*
X129738285Y-98553542D01*
X129690666Y-98601161D01*
X129595428Y-98648780D01*
X129357333Y-98648780D01*
X129262095Y-98601161D01*
X129214476Y-98553542D01*
X131551142Y-114460257D02*
X131598761Y-114507876D01*
X131646380Y-114650733D01*
X131646380Y-114745971D01*
X131598761Y-114888828D01*
X131503523Y-114984066D01*
X131408285Y-115031685D01*
X131217809Y-115079304D01*
X131074952Y-115079304D01*
X130884476Y-115031685D01*
X130789238Y-114984066D01*
X130694000Y-114888828D01*
X130646380Y-114745971D01*
X130646380Y-114650733D01*
X130694000Y-114507876D01*
X130741619Y-114460257D01*
X131646380Y-113507876D02*
X131646380Y-114079304D01*
X131646380Y-113793590D02*
X130646380Y-113793590D01*
X130789238Y-113888828D01*
X130884476Y-113984066D01*
X130932095Y-114079304D01*
X130646380Y-112650733D02*
X130646380Y-112841209D01*
X130694000Y-112936447D01*
X130741619Y-112984066D01*
X130884476Y-113079304D01*
X131074952Y-113126923D01*
X131455904Y-113126923D01*
X131551142Y-113079304D01*
X131598761Y-113031685D01*
X131646380Y-112936447D01*
X131646380Y-112745971D01*
X131598761Y-112650733D01*
X131551142Y-112603114D01*
X131455904Y-112555495D01*
X131217809Y-112555495D01*
X131122571Y-112603114D01*
X131074952Y-112650733D01*
X131027333Y-112745971D01*
X131027333Y-112936447D01*
X131074952Y-113031685D01*
X131122571Y-113079304D01*
X131217809Y-113126923D01*
X131548142Y-111666257D02*
X131595761Y-111713876D01*
X131643380Y-111856733D01*
X131643380Y-111951971D01*
X131595761Y-112094828D01*
X131500523Y-112190066D01*
X131405285Y-112237685D01*
X131214809Y-112285304D01*
X131071952Y-112285304D01*
X130881476Y-112237685D01*
X130786238Y-112190066D01*
X130691000Y-112094828D01*
X130643380Y-111951971D01*
X130643380Y-111856733D01*
X130691000Y-111713876D01*
X130738619Y-111666257D01*
X131643380Y-110713876D02*
X131643380Y-111285304D01*
X131643380Y-110999590D02*
X130643380Y-110999590D01*
X130786238Y-111094828D01*
X130881476Y-111190066D01*
X130929095Y-111285304D01*
X130643380Y-110380542D02*
X130643380Y-109713876D01*
X131643380Y-110142447D01*
X164457142Y-129177142D02*
X164409523Y-129224761D01*
X164266666Y-129272380D01*
X164171428Y-129272380D01*
X164028571Y-129224761D01*
X163933333Y-129129523D01*
X163885714Y-129034285D01*
X163838095Y-128843809D01*
X163838095Y-128700952D01*
X163885714Y-128510476D01*
X163933333Y-128415238D01*
X164028571Y-128320000D01*
X164171428Y-128272380D01*
X164266666Y-128272380D01*
X164409523Y-128320000D01*
X164457142Y-128367619D01*
X165409523Y-129272380D02*
X164838095Y-129272380D01*
X165123809Y-129272380D02*
X165123809Y-128272380D01*
X165028571Y-128415238D01*
X164933333Y-128510476D01*
X164838095Y-128558095D01*
X165980952Y-128700952D02*
X165885714Y-128653333D01*
X165838095Y-128605714D01*
X165790476Y-128510476D01*
X165790476Y-128462857D01*
X165838095Y-128367619D01*
X165885714Y-128320000D01*
X165980952Y-128272380D01*
X166171428Y-128272380D01*
X166266666Y-128320000D01*
X166314285Y-128367619D01*
X166361904Y-128462857D01*
X166361904Y-128510476D01*
X166314285Y-128605714D01*
X166266666Y-128653333D01*
X166171428Y-128700952D01*
X165980952Y-128700952D01*
X165885714Y-128748571D01*
X165838095Y-128796190D01*
X165790476Y-128891428D01*
X165790476Y-129081904D01*
X165838095Y-129177142D01*
X165885714Y-129224761D01*
X165980952Y-129272380D01*
X166171428Y-129272380D01*
X166266666Y-129224761D01*
X166314285Y-129177142D01*
X166361904Y-129081904D01*
X166361904Y-128891428D01*
X166314285Y-128796190D01*
X166266666Y-128748571D01*
X166171428Y-128700952D01*
X165727142Y-98426542D02*
X165679523Y-98474161D01*
X165536666Y-98521780D01*
X165441428Y-98521780D01*
X165298571Y-98474161D01*
X165203333Y-98378923D01*
X165155714Y-98283685D01*
X165108095Y-98093209D01*
X165108095Y-97950352D01*
X165155714Y-97759876D01*
X165203333Y-97664638D01*
X165298571Y-97569400D01*
X165441428Y-97521780D01*
X165536666Y-97521780D01*
X165679523Y-97569400D01*
X165727142Y-97617019D01*
X166679523Y-98521780D02*
X166108095Y-98521780D01*
X166393809Y-98521780D02*
X166393809Y-97521780D01*
X166298571Y-97664638D01*
X166203333Y-97759876D01*
X166108095Y-97807495D01*
X167155714Y-98521780D02*
X167346190Y-98521780D01*
X167441428Y-98474161D01*
X167489047Y-98426542D01*
X167584285Y-98283685D01*
X167631904Y-98093209D01*
X167631904Y-97712257D01*
X167584285Y-97617019D01*
X167536666Y-97569400D01*
X167441428Y-97521780D01*
X167250952Y-97521780D01*
X167155714Y-97569400D01*
X167108095Y-97617019D01*
X167060476Y-97712257D01*
X167060476Y-97950352D01*
X167108095Y-98045590D01*
X167155714Y-98093209D01*
X167250952Y-98140828D01*
X167441428Y-98140828D01*
X167536666Y-98093209D01*
X167584285Y-98045590D01*
X167631904Y-97950352D01*
X183126142Y-93981542D02*
X183078523Y-94029161D01*
X182935666Y-94076780D01*
X182840428Y-94076780D01*
X182697571Y-94029161D01*
X182602333Y-93933923D01*
X182554714Y-93838685D01*
X182507095Y-93648209D01*
X182507095Y-93505352D01*
X182554714Y-93314876D01*
X182602333Y-93219638D01*
X182697571Y-93124400D01*
X182840428Y-93076780D01*
X182935666Y-93076780D01*
X183078523Y-93124400D01*
X183126142Y-93172019D01*
X183507095Y-93172019D02*
X183554714Y-93124400D01*
X183649952Y-93076780D01*
X183888047Y-93076780D01*
X183983285Y-93124400D01*
X184030904Y-93172019D01*
X184078523Y-93267257D01*
X184078523Y-93362495D01*
X184030904Y-93505352D01*
X183459476Y-94076780D01*
X184078523Y-94076780D01*
X185030904Y-94076780D02*
X184459476Y-94076780D01*
X184745190Y-94076780D02*
X184745190Y-93076780D01*
X184649952Y-93219638D01*
X184554714Y-93314876D01*
X184459476Y-93362495D01*
X185412142Y-110237542D02*
X185364523Y-110285161D01*
X185221666Y-110332780D01*
X185126428Y-110332780D01*
X184983571Y-110285161D01*
X184888333Y-110189923D01*
X184840714Y-110094685D01*
X184793095Y-109904209D01*
X184793095Y-109761352D01*
X184840714Y-109570876D01*
X184888333Y-109475638D01*
X184983571Y-109380400D01*
X185126428Y-109332780D01*
X185221666Y-109332780D01*
X185364523Y-109380400D01*
X185412142Y-109428019D01*
X185793095Y-109428019D02*
X185840714Y-109380400D01*
X185935952Y-109332780D01*
X186174047Y-109332780D01*
X186269285Y-109380400D01*
X186316904Y-109428019D01*
X186364523Y-109523257D01*
X186364523Y-109618495D01*
X186316904Y-109761352D01*
X185745476Y-110332780D01*
X186364523Y-110332780D01*
X186745476Y-109428019D02*
X186793095Y-109380400D01*
X186888333Y-109332780D01*
X187126428Y-109332780D01*
X187221666Y-109380400D01*
X187269285Y-109428019D01*
X187316904Y-109523257D01*
X187316904Y-109618495D01*
X187269285Y-109761352D01*
X186697857Y-110332780D01*
X187316904Y-110332780D01*
X182745142Y-112142542D02*
X182697523Y-112190161D01*
X182554666Y-112237780D01*
X182459428Y-112237780D01*
X182316571Y-112190161D01*
X182221333Y-112094923D01*
X182173714Y-111999685D01*
X182126095Y-111809209D01*
X182126095Y-111666352D01*
X182173714Y-111475876D01*
X182221333Y-111380638D01*
X182316571Y-111285400D01*
X182459428Y-111237780D01*
X182554666Y-111237780D01*
X182697523Y-111285400D01*
X182745142Y-111333019D01*
X183126095Y-111333019D02*
X183173714Y-111285400D01*
X183268952Y-111237780D01*
X183507047Y-111237780D01*
X183602285Y-111285400D01*
X183649904Y-111333019D01*
X183697523Y-111428257D01*
X183697523Y-111523495D01*
X183649904Y-111666352D01*
X183078476Y-112237780D01*
X183697523Y-112237780D01*
X184030857Y-111237780D02*
X184649904Y-111237780D01*
X184316571Y-111618733D01*
X184459428Y-111618733D01*
X184554666Y-111666352D01*
X184602285Y-111713971D01*
X184649904Y-111809209D01*
X184649904Y-112047304D01*
X184602285Y-112142542D01*
X184554666Y-112190161D01*
X184459428Y-112237780D01*
X184173714Y-112237780D01*
X184078476Y-112190161D01*
X184030857Y-112142542D01*
X185523142Y-127642857D02*
X185570761Y-127690476D01*
X185618380Y-127833333D01*
X185618380Y-127928571D01*
X185570761Y-128071428D01*
X185475523Y-128166666D01*
X185380285Y-128214285D01*
X185189809Y-128261904D01*
X185046952Y-128261904D01*
X184856476Y-128214285D01*
X184761238Y-128166666D01*
X184666000Y-128071428D01*
X184618380Y-127928571D01*
X184618380Y-127833333D01*
X184666000Y-127690476D01*
X184713619Y-127642857D01*
X184713619Y-127261904D02*
X184666000Y-127214285D01*
X184618380Y-127119047D01*
X184618380Y-126880952D01*
X184666000Y-126785714D01*
X184713619Y-126738095D01*
X184808857Y-126690476D01*
X184904095Y-126690476D01*
X185046952Y-126738095D01*
X185618380Y-127309523D01*
X185618380Y-126690476D01*
X184951714Y-125833333D02*
X185618380Y-125833333D01*
X184570761Y-126071428D02*
X185285047Y-126309523D01*
X185285047Y-125690476D01*
X119149380Y-85956733D02*
X119863666Y-85956733D01*
X120006523Y-86004352D01*
X120101761Y-86099590D01*
X120149380Y-86242447D01*
X120149380Y-86337685D01*
X120149380Y-84956733D02*
X120149380Y-85528161D01*
X120149380Y-85242447D02*
X119149380Y-85242447D01*
X119292238Y-85337685D01*
X119387476Y-85432923D01*
X119435095Y-85528161D01*
X113585666Y-95489780D02*
X113585666Y-96204066D01*
X113538047Y-96346923D01*
X113442809Y-96442161D01*
X113299952Y-96489780D01*
X113204714Y-96489780D01*
X114014238Y-95585019D02*
X114061857Y-95537400D01*
X114157095Y-95489780D01*
X114395190Y-95489780D01*
X114490428Y-95537400D01*
X114538047Y-95585019D01*
X114585666Y-95680257D01*
X114585666Y-95775495D01*
X114538047Y-95918352D01*
X113966619Y-96489780D01*
X114585666Y-96489780D01*
X170989666Y-73601780D02*
X170989666Y-74316066D01*
X170942047Y-74458923D01*
X170846809Y-74554161D01*
X170703952Y-74601780D01*
X170608714Y-74601780D01*
X171370619Y-73601780D02*
X171989666Y-73601780D01*
X171656333Y-73982733D01*
X171799190Y-73982733D01*
X171894428Y-74030352D01*
X171942047Y-74077971D01*
X171989666Y-74173209D01*
X171989666Y-74411304D01*
X171942047Y-74506542D01*
X171894428Y-74554161D01*
X171799190Y-74601780D01*
X171513476Y-74601780D01*
X171418238Y-74554161D01*
X171370619Y-74506542D01*
X140803333Y-73604380D02*
X140470000Y-73128190D01*
X140231904Y-73604380D02*
X140231904Y-72604380D01*
X140612857Y-72604380D01*
X140708095Y-72652000D01*
X140755714Y-72699619D01*
X140803333Y-72794857D01*
X140803333Y-72937714D01*
X140755714Y-73032952D01*
X140708095Y-73080571D01*
X140612857Y-73128190D01*
X140231904Y-73128190D01*
X141755714Y-73604380D02*
X141184285Y-73604380D01*
X141470000Y-73604380D02*
X141470000Y-72604380D01*
X141374761Y-72747238D01*
X141279523Y-72842476D01*
X141184285Y-72890095D01*
X144105333Y-73604380D02*
X143772000Y-73128190D01*
X143533904Y-73604380D02*
X143533904Y-72604380D01*
X143914857Y-72604380D01*
X144010095Y-72652000D01*
X144057714Y-72699619D01*
X144105333Y-72794857D01*
X144105333Y-72937714D01*
X144057714Y-73032952D01*
X144010095Y-73080571D01*
X143914857Y-73128190D01*
X143533904Y-73128190D01*
X144486285Y-72699619D02*
X144533904Y-72652000D01*
X144629142Y-72604380D01*
X144867238Y-72604380D01*
X144962476Y-72652000D01*
X145010095Y-72699619D01*
X145057714Y-72794857D01*
X145057714Y-72890095D01*
X145010095Y-73032952D01*
X144438666Y-73604380D01*
X145057714Y-73604380D01*
X142454333Y-83366780D02*
X142121000Y-82890590D01*
X141882904Y-83366780D02*
X141882904Y-82366780D01*
X142263857Y-82366780D01*
X142359095Y-82414400D01*
X142406714Y-82462019D01*
X142454333Y-82557257D01*
X142454333Y-82700114D01*
X142406714Y-82795352D01*
X142359095Y-82842971D01*
X142263857Y-82890590D01*
X141882904Y-82890590D01*
X142787666Y-82366780D02*
X143406714Y-82366780D01*
X143073380Y-82747733D01*
X143216238Y-82747733D01*
X143311476Y-82795352D01*
X143359095Y-82842971D01*
X143406714Y-82938209D01*
X143406714Y-83176304D01*
X143359095Y-83271542D01*
X143311476Y-83319161D01*
X143216238Y-83366780D01*
X142930523Y-83366780D01*
X142835285Y-83319161D01*
X142787666Y-83271542D01*
X128611333Y-92806780D02*
X128278000Y-92330590D01*
X128039904Y-92806780D02*
X128039904Y-91806780D01*
X128420857Y-91806780D01*
X128516095Y-91854400D01*
X128563714Y-91902019D01*
X128611333Y-91997257D01*
X128611333Y-92140114D01*
X128563714Y-92235352D01*
X128516095Y-92282971D01*
X128420857Y-92330590D01*
X128039904Y-92330590D01*
X129468476Y-92140114D02*
X129468476Y-92806780D01*
X129230380Y-91759161D02*
X128992285Y-92473447D01*
X129611333Y-92473447D01*
X189597380Y-75122066D02*
X189121190Y-75455400D01*
X189597380Y-75693495D02*
X188597380Y-75693495D01*
X188597380Y-75312542D01*
X188645000Y-75217304D01*
X188692619Y-75169685D01*
X188787857Y-75122066D01*
X188930714Y-75122066D01*
X189025952Y-75169685D01*
X189073571Y-75217304D01*
X189121190Y-75312542D01*
X189121190Y-75693495D01*
X188597380Y-74217304D02*
X188597380Y-74693495D01*
X189073571Y-74741114D01*
X189025952Y-74693495D01*
X188978333Y-74598257D01*
X188978333Y-74360161D01*
X189025952Y-74264923D01*
X189073571Y-74217304D01*
X189168809Y-74169685D01*
X189406904Y-74169685D01*
X189502142Y-74217304D01*
X189549761Y-74264923D01*
X189597380Y-74360161D01*
X189597380Y-74598257D01*
X189549761Y-74693495D01*
X189502142Y-74741114D01*
X189597380Y-81726066D02*
X189121190Y-82059400D01*
X189597380Y-82297495D02*
X188597380Y-82297495D01*
X188597380Y-81916542D01*
X188645000Y-81821304D01*
X188692619Y-81773685D01*
X188787857Y-81726066D01*
X188930714Y-81726066D01*
X189025952Y-81773685D01*
X189073571Y-81821304D01*
X189121190Y-81916542D01*
X189121190Y-82297495D01*
X188597380Y-80868923D02*
X188597380Y-81059400D01*
X188645000Y-81154638D01*
X188692619Y-81202257D01*
X188835476Y-81297495D01*
X189025952Y-81345114D01*
X189406904Y-81345114D01*
X189502142Y-81297495D01*
X189549761Y-81249876D01*
X189597380Y-81154638D01*
X189597380Y-80964161D01*
X189549761Y-80868923D01*
X189502142Y-80821304D01*
X189406904Y-80773685D01*
X189168809Y-80773685D01*
X189073571Y-80821304D01*
X189025952Y-80868923D01*
X188978333Y-80964161D01*
X188978333Y-81154638D01*
X189025952Y-81249876D01*
X189073571Y-81297495D01*
X189168809Y-81345114D01*
X189597380Y-87695066D02*
X189121190Y-88028400D01*
X189597380Y-88266495D02*
X188597380Y-88266495D01*
X188597380Y-87885542D01*
X188645000Y-87790304D01*
X188692619Y-87742685D01*
X188787857Y-87695066D01*
X188930714Y-87695066D01*
X189025952Y-87742685D01*
X189073571Y-87790304D01*
X189121190Y-87885542D01*
X189121190Y-88266495D01*
X188597380Y-87361733D02*
X188597380Y-86695066D01*
X189597380Y-87123638D01*
X146010333Y-89123780D02*
X145677000Y-88647590D01*
X145438904Y-89123780D02*
X145438904Y-88123780D01*
X145819857Y-88123780D01*
X145915095Y-88171400D01*
X145962714Y-88219019D01*
X146010333Y-88314257D01*
X146010333Y-88457114D01*
X145962714Y-88552352D01*
X145915095Y-88599971D01*
X145819857Y-88647590D01*
X145438904Y-88647590D01*
X146581761Y-88552352D02*
X146486523Y-88504733D01*
X146438904Y-88457114D01*
X146391285Y-88361876D01*
X146391285Y-88314257D01*
X146438904Y-88219019D01*
X146486523Y-88171400D01*
X146581761Y-88123780D01*
X146772238Y-88123780D01*
X146867476Y-88171400D01*
X146915095Y-88219019D01*
X146962714Y-88314257D01*
X146962714Y-88361876D01*
X146915095Y-88457114D01*
X146867476Y-88504733D01*
X146772238Y-88552352D01*
X146581761Y-88552352D01*
X146486523Y-88599971D01*
X146438904Y-88647590D01*
X146391285Y-88742828D01*
X146391285Y-88933304D01*
X146438904Y-89028542D01*
X146486523Y-89076161D01*
X146581761Y-89123780D01*
X146772238Y-89123780D01*
X146867476Y-89076161D01*
X146915095Y-89028542D01*
X146962714Y-88933304D01*
X146962714Y-88742828D01*
X146915095Y-88647590D01*
X146867476Y-88599971D01*
X146772238Y-88552352D01*
X140549333Y-97759780D02*
X140216000Y-97283590D01*
X139977904Y-97759780D02*
X139977904Y-96759780D01*
X140358857Y-96759780D01*
X140454095Y-96807400D01*
X140501714Y-96855019D01*
X140549333Y-96950257D01*
X140549333Y-97093114D01*
X140501714Y-97188352D01*
X140454095Y-97235971D01*
X140358857Y-97283590D01*
X139977904Y-97283590D01*
X141025523Y-97759780D02*
X141216000Y-97759780D01*
X141311238Y-97712161D01*
X141358857Y-97664542D01*
X141454095Y-97521685D01*
X141501714Y-97331209D01*
X141501714Y-96950257D01*
X141454095Y-96855019D01*
X141406476Y-96807400D01*
X141311238Y-96759780D01*
X141120761Y-96759780D01*
X141025523Y-96807400D01*
X140977904Y-96855019D01*
X140930285Y-96950257D01*
X140930285Y-97188352D01*
X140977904Y-97283590D01*
X141025523Y-97331209D01*
X141120761Y-97378828D01*
X141311238Y-97378828D01*
X141406476Y-97331209D01*
X141454095Y-97283590D01*
X141501714Y-97188352D01*
X143883142Y-97886780D02*
X143549809Y-97410590D01*
X143311714Y-97886780D02*
X143311714Y-96886780D01*
X143692666Y-96886780D01*
X143787904Y-96934400D01*
X143835523Y-96982019D01*
X143883142Y-97077257D01*
X143883142Y-97220114D01*
X143835523Y-97315352D01*
X143787904Y-97362971D01*
X143692666Y-97410590D01*
X143311714Y-97410590D01*
X144835523Y-97886780D02*
X144264095Y-97886780D01*
X144549809Y-97886780D02*
X144549809Y-96886780D01*
X144454571Y-97029638D01*
X144359333Y-97124876D01*
X144264095Y-97172495D01*
X145454571Y-96886780D02*
X145549809Y-96886780D01*
X145645047Y-96934400D01*
X145692666Y-96982019D01*
X145740285Y-97077257D01*
X145787904Y-97267733D01*
X145787904Y-97505828D01*
X145740285Y-97696304D01*
X145692666Y-97791542D01*
X145645047Y-97839161D01*
X145549809Y-97886780D01*
X145454571Y-97886780D01*
X145359333Y-97839161D01*
X145311714Y-97791542D01*
X145264095Y-97696304D01*
X145216476Y-97505828D01*
X145216476Y-97267733D01*
X145264095Y-97077257D01*
X145311714Y-96982019D01*
X145359333Y-96934400D01*
X145454571Y-96886780D01*
X141851142Y-104575780D02*
X141517809Y-104099590D01*
X141279714Y-104575780D02*
X141279714Y-103575780D01*
X141660666Y-103575780D01*
X141755904Y-103623400D01*
X141803523Y-103671019D01*
X141851142Y-103766257D01*
X141851142Y-103909114D01*
X141803523Y-104004352D01*
X141755904Y-104051971D01*
X141660666Y-104099590D01*
X141279714Y-104099590D01*
X142803523Y-104575780D02*
X142232095Y-104575780D01*
X142517809Y-104575780D02*
X142517809Y-103575780D01*
X142422571Y-103718638D01*
X142327333Y-103813876D01*
X142232095Y-103861495D01*
X143755904Y-104575780D02*
X143184476Y-104575780D01*
X143470190Y-104575780D02*
X143470190Y-103575780D01*
X143374952Y-103718638D01*
X143279714Y-103813876D01*
X143184476Y-103861495D01*
X127754142Y-111729780D02*
X127420809Y-111253590D01*
X127182714Y-111729780D02*
X127182714Y-110729780D01*
X127563666Y-110729780D01*
X127658904Y-110777400D01*
X127706523Y-110825019D01*
X127754142Y-110920257D01*
X127754142Y-111063114D01*
X127706523Y-111158352D01*
X127658904Y-111205971D01*
X127563666Y-111253590D01*
X127182714Y-111253590D01*
X128706523Y-111729780D02*
X128135095Y-111729780D01*
X128420809Y-111729780D02*
X128420809Y-110729780D01*
X128325571Y-110872638D01*
X128230333Y-110967876D01*
X128135095Y-111015495D01*
X129087476Y-110825019D02*
X129135095Y-110777400D01*
X129230333Y-110729780D01*
X129468428Y-110729780D01*
X129563666Y-110777400D01*
X129611285Y-110825019D01*
X129658904Y-110920257D01*
X129658904Y-111015495D01*
X129611285Y-111158352D01*
X129039857Y-111729780D01*
X129658904Y-111729780D01*
X133723142Y-126165780D02*
X133389809Y-125689590D01*
X133151714Y-126165780D02*
X133151714Y-125165780D01*
X133532666Y-125165780D01*
X133627904Y-125213400D01*
X133675523Y-125261019D01*
X133723142Y-125356257D01*
X133723142Y-125499114D01*
X133675523Y-125594352D01*
X133627904Y-125641971D01*
X133532666Y-125689590D01*
X133151714Y-125689590D01*
X134675523Y-126165780D02*
X134104095Y-126165780D01*
X134389809Y-126165780D02*
X134389809Y-125165780D01*
X134294571Y-125308638D01*
X134199333Y-125403876D01*
X134104095Y-125451495D01*
X135008857Y-125165780D02*
X135627904Y-125165780D01*
X135294571Y-125546733D01*
X135437428Y-125546733D01*
X135532666Y-125594352D01*
X135580285Y-125641971D01*
X135627904Y-125737209D01*
X135627904Y-125975304D01*
X135580285Y-126070542D01*
X135532666Y-126118161D01*
X135437428Y-126165780D01*
X135151714Y-126165780D01*
X135056476Y-126118161D01*
X135008857Y-126070542D01*
X139184142Y-126292780D02*
X138850809Y-125816590D01*
X138612714Y-126292780D02*
X138612714Y-125292780D01*
X138993666Y-125292780D01*
X139088904Y-125340400D01*
X139136523Y-125388019D01*
X139184142Y-125483257D01*
X139184142Y-125626114D01*
X139136523Y-125721352D01*
X139088904Y-125768971D01*
X138993666Y-125816590D01*
X138612714Y-125816590D01*
X140136523Y-126292780D02*
X139565095Y-126292780D01*
X139850809Y-126292780D02*
X139850809Y-125292780D01*
X139755571Y-125435638D01*
X139660333Y-125530876D01*
X139565095Y-125578495D01*
X140993666Y-125626114D02*
X140993666Y-126292780D01*
X140755571Y-125245161D02*
X140517476Y-125959447D01*
X141136523Y-125959447D01*
X144645142Y-126292780D02*
X144311809Y-125816590D01*
X144073714Y-126292780D02*
X144073714Y-125292780D01*
X144454666Y-125292780D01*
X144549904Y-125340400D01*
X144597523Y-125388019D01*
X144645142Y-125483257D01*
X144645142Y-125626114D01*
X144597523Y-125721352D01*
X144549904Y-125768971D01*
X144454666Y-125816590D01*
X144073714Y-125816590D01*
X145597523Y-126292780D02*
X145026095Y-126292780D01*
X145311809Y-126292780D02*
X145311809Y-125292780D01*
X145216571Y-125435638D01*
X145121333Y-125530876D01*
X145026095Y-125578495D01*
X146502285Y-125292780D02*
X146026095Y-125292780D01*
X145978476Y-125768971D01*
X146026095Y-125721352D01*
X146121333Y-125673733D01*
X146359428Y-125673733D01*
X146454666Y-125721352D01*
X146502285Y-125768971D01*
X146549904Y-125864209D01*
X146549904Y-126102304D01*
X146502285Y-126197542D01*
X146454666Y-126245161D01*
X146359428Y-126292780D01*
X146121333Y-126292780D01*
X146026095Y-126245161D01*
X145978476Y-126197542D01*
X150741142Y-100130780D02*
X150407809Y-99654590D01*
X150169714Y-100130780D02*
X150169714Y-99130780D01*
X150550666Y-99130780D01*
X150645904Y-99178400D01*
X150693523Y-99226019D01*
X150741142Y-99321257D01*
X150741142Y-99464114D01*
X150693523Y-99559352D01*
X150645904Y-99606971D01*
X150550666Y-99654590D01*
X150169714Y-99654590D01*
X151693523Y-100130780D02*
X151122095Y-100130780D01*
X151407809Y-100130780D02*
X151407809Y-99130780D01*
X151312571Y-99273638D01*
X151217333Y-99368876D01*
X151122095Y-99416495D01*
X152550666Y-99130780D02*
X152360190Y-99130780D01*
X152264952Y-99178400D01*
X152217333Y-99226019D01*
X152122095Y-99368876D01*
X152074476Y-99559352D01*
X152074476Y-99940304D01*
X152122095Y-100035542D01*
X152169714Y-100083161D01*
X152264952Y-100130780D01*
X152455428Y-100130780D01*
X152550666Y-100083161D01*
X152598285Y-100035542D01*
X152645904Y-99940304D01*
X152645904Y-99702209D01*
X152598285Y-99606971D01*
X152550666Y-99559352D01*
X152455428Y-99511733D01*
X152264952Y-99511733D01*
X152169714Y-99559352D01*
X152122095Y-99606971D01*
X152074476Y-99702209D01*
X180078142Y-94076780D02*
X179744809Y-93600590D01*
X179506714Y-94076780D02*
X179506714Y-93076780D01*
X179887666Y-93076780D01*
X179982904Y-93124400D01*
X180030523Y-93172019D01*
X180078142Y-93267257D01*
X180078142Y-93410114D01*
X180030523Y-93505352D01*
X179982904Y-93552971D01*
X179887666Y-93600590D01*
X179506714Y-93600590D01*
X181030523Y-94076780D02*
X180459095Y-94076780D01*
X180744809Y-94076780D02*
X180744809Y-93076780D01*
X180649571Y-93219638D01*
X180554333Y-93314876D01*
X180459095Y-93362495D01*
X181363857Y-93076780D02*
X182030523Y-93076780D01*
X181601952Y-94076780D01*
X177284142Y-110205780D02*
X176950809Y-109729590D01*
X176712714Y-110205780D02*
X176712714Y-109205780D01*
X177093666Y-109205780D01*
X177188904Y-109253400D01*
X177236523Y-109301019D01*
X177284142Y-109396257D01*
X177284142Y-109539114D01*
X177236523Y-109634352D01*
X177188904Y-109681971D01*
X177093666Y-109729590D01*
X176712714Y-109729590D01*
X178236523Y-110205780D02*
X177665095Y-110205780D01*
X177950809Y-110205780D02*
X177950809Y-109205780D01*
X177855571Y-109348638D01*
X177760333Y-109443876D01*
X177665095Y-109491495D01*
X178807952Y-109634352D02*
X178712714Y-109586733D01*
X178665095Y-109539114D01*
X178617476Y-109443876D01*
X178617476Y-109396257D01*
X178665095Y-109301019D01*
X178712714Y-109253400D01*
X178807952Y-109205780D01*
X178998428Y-109205780D01*
X179093666Y-109253400D01*
X179141285Y-109301019D01*
X179188904Y-109396257D01*
X179188904Y-109443876D01*
X179141285Y-109539114D01*
X179093666Y-109586733D01*
X178998428Y-109634352D01*
X178807952Y-109634352D01*
X178712714Y-109681971D01*
X178665095Y-109729590D01*
X178617476Y-109824828D01*
X178617476Y-110015304D01*
X178665095Y-110110542D01*
X178712714Y-110158161D01*
X178807952Y-110205780D01*
X178998428Y-110205780D01*
X179093666Y-110158161D01*
X179141285Y-110110542D01*
X179188904Y-110015304D01*
X179188904Y-109824828D01*
X179141285Y-109729590D01*
X179093666Y-109681971D01*
X178998428Y-109634352D01*
X179443142Y-112110780D02*
X179109809Y-111634590D01*
X178871714Y-112110780D02*
X178871714Y-111110780D01*
X179252666Y-111110780D01*
X179347904Y-111158400D01*
X179395523Y-111206019D01*
X179443142Y-111301257D01*
X179443142Y-111444114D01*
X179395523Y-111539352D01*
X179347904Y-111586971D01*
X179252666Y-111634590D01*
X178871714Y-111634590D01*
X180395523Y-112110780D02*
X179824095Y-112110780D01*
X180109809Y-112110780D02*
X180109809Y-111110780D01*
X180014571Y-111253638D01*
X179919333Y-111348876D01*
X179824095Y-111396495D01*
X180871714Y-112110780D02*
X181062190Y-112110780D01*
X181157428Y-112063161D01*
X181205047Y-112015542D01*
X181300285Y-111872685D01*
X181347904Y-111682209D01*
X181347904Y-111301257D01*
X181300285Y-111206019D01*
X181252666Y-111158400D01*
X181157428Y-111110780D01*
X180966952Y-111110780D01*
X180871714Y-111158400D01*
X180824095Y-111206019D01*
X180776476Y-111301257D01*
X180776476Y-111539352D01*
X180824095Y-111634590D01*
X180871714Y-111682209D01*
X180966952Y-111729828D01*
X181157428Y-111729828D01*
X181252666Y-111682209D01*
X181300285Y-111634590D01*
X181347904Y-111539352D01*
X178760380Y-127642857D02*
X178284190Y-127976190D01*
X178760380Y-128214285D02*
X177760380Y-128214285D01*
X177760380Y-127833333D01*
X177808000Y-127738095D01*
X177855619Y-127690476D01*
X177950857Y-127642857D01*
X178093714Y-127642857D01*
X178188952Y-127690476D01*
X178236571Y-127738095D01*
X178284190Y-127833333D01*
X178284190Y-128214285D01*
X177855619Y-127261904D02*
X177808000Y-127214285D01*
X177760380Y-127119047D01*
X177760380Y-126880952D01*
X177808000Y-126785714D01*
X177855619Y-126738095D01*
X177950857Y-126690476D01*
X178046095Y-126690476D01*
X178188952Y-126738095D01*
X178760380Y-127309523D01*
X178760380Y-126690476D01*
X177760380Y-126071428D02*
X177760380Y-125976190D01*
X177808000Y-125880952D01*
X177855619Y-125833333D01*
X177950857Y-125785714D01*
X178141333Y-125738095D01*
X178379428Y-125738095D01*
X178569904Y-125785714D01*
X178665142Y-125833333D01*
X178712761Y-125880952D01*
X178760380Y-125976190D01*
X178760380Y-126071428D01*
X178712761Y-126166666D01*
X178665142Y-126214285D01*
X178569904Y-126261904D01*
X178379428Y-126309523D01*
X178141333Y-126309523D01*
X177950857Y-126261904D01*
X177855619Y-126214285D01*
X177808000Y-126166666D01*
X177760380Y-126071428D01*
X179395380Y-101125257D02*
X178919190Y-101458590D01*
X179395380Y-101696685D02*
X178395380Y-101696685D01*
X178395380Y-101315733D01*
X178443000Y-101220495D01*
X178490619Y-101172876D01*
X178585857Y-101125257D01*
X178728714Y-101125257D01*
X178823952Y-101172876D01*
X178871571Y-101220495D01*
X178919190Y-101315733D01*
X178919190Y-101696685D01*
X178490619Y-100744304D02*
X178443000Y-100696685D01*
X178395380Y-100601447D01*
X178395380Y-100363352D01*
X178443000Y-100268114D01*
X178490619Y-100220495D01*
X178585857Y-100172876D01*
X178681095Y-100172876D01*
X178823952Y-100220495D01*
X179395380Y-100791923D01*
X179395380Y-100172876D01*
X179395380Y-99220495D02*
X179395380Y-99791923D01*
X179395380Y-99506209D02*
X178395380Y-99506209D01*
X178538238Y-99601447D01*
X178633476Y-99696685D01*
X178681095Y-99791923D01*
X179522380Y-104681257D02*
X179046190Y-105014590D01*
X179522380Y-105252685D02*
X178522380Y-105252685D01*
X178522380Y-104871733D01*
X178570000Y-104776495D01*
X178617619Y-104728876D01*
X178712857Y-104681257D01*
X178855714Y-104681257D01*
X178950952Y-104728876D01*
X178998571Y-104776495D01*
X179046190Y-104871733D01*
X179046190Y-105252685D01*
X178617619Y-104300304D02*
X178570000Y-104252685D01*
X178522380Y-104157447D01*
X178522380Y-103919352D01*
X178570000Y-103824114D01*
X178617619Y-103776495D01*
X178712857Y-103728876D01*
X178808095Y-103728876D01*
X178950952Y-103776495D01*
X179522380Y-104347923D01*
X179522380Y-103728876D01*
X178617619Y-103347923D02*
X178570000Y-103300304D01*
X178522380Y-103205066D01*
X178522380Y-102966971D01*
X178570000Y-102871733D01*
X178617619Y-102824114D01*
X178712857Y-102776495D01*
X178808095Y-102776495D01*
X178950952Y-102824114D01*
X179522380Y-103395542D01*
X179522380Y-102776495D01*
X179141380Y-119667257D02*
X178665190Y-120000590D01*
X179141380Y-120238685D02*
X178141380Y-120238685D01*
X178141380Y-119857733D01*
X178189000Y-119762495D01*
X178236619Y-119714876D01*
X178331857Y-119667257D01*
X178474714Y-119667257D01*
X178569952Y-119714876D01*
X178617571Y-119762495D01*
X178665190Y-119857733D01*
X178665190Y-120238685D01*
X178236619Y-119286304D02*
X178189000Y-119238685D01*
X178141380Y-119143447D01*
X178141380Y-118905352D01*
X178189000Y-118810114D01*
X178236619Y-118762495D01*
X178331857Y-118714876D01*
X178427095Y-118714876D01*
X178569952Y-118762495D01*
X179141380Y-119333923D01*
X179141380Y-118714876D01*
X178141380Y-118381542D02*
X178141380Y-117762495D01*
X178522333Y-118095828D01*
X178522333Y-117952971D01*
X178569952Y-117857733D01*
X178617571Y-117810114D01*
X178712809Y-117762495D01*
X178950904Y-117762495D01*
X179046142Y-117810114D01*
X179093761Y-117857733D01*
X179141380Y-117952971D01*
X179141380Y-118238685D01*
X179093761Y-118333923D01*
X179046142Y-118381542D01*
X179268380Y-123223257D02*
X178792190Y-123556590D01*
X179268380Y-123794685D02*
X178268380Y-123794685D01*
X178268380Y-123413733D01*
X178316000Y-123318495D01*
X178363619Y-123270876D01*
X178458857Y-123223257D01*
X178601714Y-123223257D01*
X178696952Y-123270876D01*
X178744571Y-123318495D01*
X178792190Y-123413733D01*
X178792190Y-123794685D01*
X178363619Y-122842304D02*
X178316000Y-122794685D01*
X178268380Y-122699447D01*
X178268380Y-122461352D01*
X178316000Y-122366114D01*
X178363619Y-122318495D01*
X178458857Y-122270876D01*
X178554095Y-122270876D01*
X178696952Y-122318495D01*
X179268380Y-122889923D01*
X179268380Y-122270876D01*
X178601714Y-121413733D02*
X179268380Y-121413733D01*
X178220761Y-121651828D02*
X178935047Y-121889923D01*
X178935047Y-121270876D01*
X121729666Y-79043161D02*
X121872523Y-79090780D01*
X122110619Y-79090780D01*
X122205857Y-79043161D01*
X122253476Y-78995542D01*
X122301095Y-78900304D01*
X122301095Y-78805066D01*
X122253476Y-78709828D01*
X122205857Y-78662209D01*
X122110619Y-78614590D01*
X121920142Y-78566971D01*
X121824904Y-78519352D01*
X121777285Y-78471733D01*
X121729666Y-78376495D01*
X121729666Y-78281257D01*
X121777285Y-78186019D01*
X121824904Y-78138400D01*
X121920142Y-78090780D01*
X122158238Y-78090780D01*
X122301095Y-78138400D01*
X122634428Y-78090780D02*
X122872523Y-79090780D01*
X123063000Y-78376495D01*
X123253476Y-79090780D01*
X123491571Y-78090780D01*
X124396333Y-79090780D02*
X123824904Y-79090780D01*
X124110619Y-79090780D02*
X124110619Y-78090780D01*
X124015380Y-78233638D01*
X123920142Y-78328876D01*
X123824904Y-78376495D01*
X121221666Y-97839161D02*
X121364523Y-97886780D01*
X121602619Y-97886780D01*
X121697857Y-97839161D01*
X121745476Y-97791542D01*
X121793095Y-97696304D01*
X121793095Y-97601066D01*
X121745476Y-97505828D01*
X121697857Y-97458209D01*
X121602619Y-97410590D01*
X121412142Y-97362971D01*
X121316904Y-97315352D01*
X121269285Y-97267733D01*
X121221666Y-97172495D01*
X121221666Y-97077257D01*
X121269285Y-96982019D01*
X121316904Y-96934400D01*
X121412142Y-96886780D01*
X121650238Y-96886780D01*
X121793095Y-96934400D01*
X122126428Y-96886780D02*
X122364523Y-97886780D01*
X122555000Y-97172495D01*
X122745476Y-97886780D01*
X122983571Y-96886780D01*
X123316904Y-96982019D02*
X123364523Y-96934400D01*
X123459761Y-96886780D01*
X123697857Y-96886780D01*
X123793095Y-96934400D01*
X123840714Y-96982019D01*
X123888333Y-97077257D01*
X123888333Y-97172495D01*
X123840714Y-97315352D01*
X123269285Y-97886780D01*
X123888333Y-97886780D01*
X188156666Y-96949161D02*
X188299523Y-96996780D01*
X188537619Y-96996780D01*
X188632857Y-96949161D01*
X188680476Y-96901542D01*
X188728095Y-96806304D01*
X188728095Y-96711066D01*
X188680476Y-96615828D01*
X188632857Y-96568209D01*
X188537619Y-96520590D01*
X188347142Y-96472971D01*
X188251904Y-96425352D01*
X188204285Y-96377733D01*
X188156666Y-96282495D01*
X188156666Y-96187257D01*
X188204285Y-96092019D01*
X188251904Y-96044400D01*
X188347142Y-95996780D01*
X188585238Y-95996780D01*
X188728095Y-96044400D01*
X189061428Y-95996780D02*
X189299523Y-96996780D01*
X189490000Y-96282495D01*
X189680476Y-96996780D01*
X189918571Y-95996780D01*
X190204285Y-95996780D02*
X190823333Y-95996780D01*
X190490000Y-96377733D01*
X190632857Y-96377733D01*
X190728095Y-96425352D01*
X190775714Y-96472971D01*
X190823333Y-96568209D01*
X190823333Y-96806304D01*
X190775714Y-96901542D01*
X190728095Y-96949161D01*
X190632857Y-96996780D01*
X190347142Y-96996780D01*
X190251904Y-96949161D01*
X190204285Y-96901542D01*
X188156666Y-112544761D02*
X188299523Y-112592380D01*
X188537619Y-112592380D01*
X188632857Y-112544761D01*
X188680476Y-112497142D01*
X188728095Y-112401904D01*
X188728095Y-112306666D01*
X188680476Y-112211428D01*
X188632857Y-112163809D01*
X188537619Y-112116190D01*
X188347142Y-112068571D01*
X188251904Y-112020952D01*
X188204285Y-111973333D01*
X188156666Y-111878095D01*
X188156666Y-111782857D01*
X188204285Y-111687619D01*
X188251904Y-111640000D01*
X188347142Y-111592380D01*
X188585238Y-111592380D01*
X188728095Y-111640000D01*
X189061428Y-111592380D02*
X189299523Y-112592380D01*
X189490000Y-111878095D01*
X189680476Y-112592380D01*
X189918571Y-111592380D01*
X190728095Y-111925714D02*
X190728095Y-112592380D01*
X190490000Y-111544761D02*
X190251904Y-112259047D01*
X190870952Y-112259047D01*
X179903380Y-87361590D02*
X179855761Y-87456828D01*
X179808142Y-87504447D01*
X179712904Y-87552066D01*
X179427190Y-87552066D01*
X179331952Y-87504447D01*
X179284333Y-87456828D01*
X179236714Y-87361590D01*
X179236714Y-87218733D01*
X179284333Y-87123495D01*
X179331952Y-87075876D01*
X179427190Y-87028257D01*
X179712904Y-87028257D01*
X179808142Y-87075876D01*
X179855761Y-87123495D01*
X179903380Y-87218733D01*
X179903380Y-87361590D01*
X179855761Y-86218733D02*
X179903380Y-86313971D01*
X179903380Y-86504447D01*
X179855761Y-86599685D01*
X179760523Y-86647304D01*
X179379571Y-86647304D01*
X179284333Y-86599685D01*
X179236714Y-86504447D01*
X179236714Y-86313971D01*
X179284333Y-86218733D01*
X179379571Y-86171114D01*
X179474809Y-86171114D01*
X179570047Y-86647304D01*
X179903380Y-85218733D02*
X179903380Y-85790161D01*
X179903380Y-85504447D02*
X178903380Y-85504447D01*
X179046238Y-85599685D01*
X179141476Y-85694923D01*
X179189095Y-85790161D01*
X193429023Y-79078614D02*
X193429023Y-79888138D01*
X193381404Y-79983376D01*
X193333785Y-80030995D01*
X193238547Y-80078614D01*
X193095690Y-80078614D01*
X193000452Y-80030995D01*
X193429023Y-79697661D02*
X193333785Y-79745280D01*
X193143309Y-79745280D01*
X193048071Y-79697661D01*
X193000452Y-79650042D01*
X192952833Y-79554804D01*
X192952833Y-79269090D01*
X193000452Y-79173852D01*
X193048071Y-79126233D01*
X193143309Y-79078614D01*
X193333785Y-79078614D01*
X193429023Y-79126233D01*
X193905214Y-79078614D02*
X193905214Y-79745280D01*
X193905214Y-79173852D02*
X193952833Y-79126233D01*
X194048071Y-79078614D01*
X194190928Y-79078614D01*
X194286166Y-79126233D01*
X194333785Y-79221471D01*
X194333785Y-79745280D01*
X195238547Y-79745280D02*
X195238547Y-78745280D01*
X195238547Y-79697661D02*
X195143309Y-79745280D01*
X194952833Y-79745280D01*
X194857595Y-79697661D01*
X194809976Y-79650042D01*
X194762357Y-79554804D01*
X194762357Y-79269090D01*
X194809976Y-79173852D01*
X194857595Y-79126233D01*
X194952833Y-79078614D01*
X195143309Y-79078614D01*
X195238547Y-79126233D01*
X107259523Y-114295714D02*
X107259523Y-115105238D01*
X107211904Y-115200476D01*
X107164285Y-115248095D01*
X107069047Y-115295714D01*
X106926190Y-115295714D01*
X106830952Y-115248095D01*
X107259523Y-114914761D02*
X107164285Y-114962380D01*
X106973809Y-114962380D01*
X106878571Y-114914761D01*
X106830952Y-114867142D01*
X106783333Y-114771904D01*
X106783333Y-114486190D01*
X106830952Y-114390952D01*
X106878571Y-114343333D01*
X106973809Y-114295714D01*
X107164285Y-114295714D01*
X107259523Y-114343333D01*
X107735714Y-114295714D02*
X107735714Y-114962380D01*
X107735714Y-114390952D02*
X107783333Y-114343333D01*
X107878571Y-114295714D01*
X108021428Y-114295714D01*
X108116666Y-114343333D01*
X108164285Y-114438571D01*
X108164285Y-114962380D01*
X109069047Y-114962380D02*
X109069047Y-113962380D01*
X109069047Y-114914761D02*
X108973809Y-114962380D01*
X108783333Y-114962380D01*
X108688095Y-114914761D01*
X108640476Y-114867142D01*
X108592857Y-114771904D01*
X108592857Y-114486190D01*
X108640476Y-114390952D01*
X108688095Y-114343333D01*
X108783333Y-114295714D01*
X108973809Y-114295714D01*
X109069047Y-114343333D01*
X113609523Y-114295714D02*
X113609523Y-115105238D01*
X113561904Y-115200476D01*
X113514285Y-115248095D01*
X113419047Y-115295714D01*
X113276190Y-115295714D01*
X113180952Y-115248095D01*
X113609523Y-114914761D02*
X113514285Y-114962380D01*
X113323809Y-114962380D01*
X113228571Y-114914761D01*
X113180952Y-114867142D01*
X113133333Y-114771904D01*
X113133333Y-114486190D01*
X113180952Y-114390952D01*
X113228571Y-114343333D01*
X113323809Y-114295714D01*
X113514285Y-114295714D01*
X113609523Y-114343333D01*
X114085714Y-114295714D02*
X114085714Y-114962380D01*
X114085714Y-114390952D02*
X114133333Y-114343333D01*
X114228571Y-114295714D01*
X114371428Y-114295714D01*
X114466666Y-114343333D01*
X114514285Y-114438571D01*
X114514285Y-114962380D01*
X115419047Y-114962380D02*
X115419047Y-113962380D01*
X115419047Y-114914761D02*
X115323809Y-114962380D01*
X115133333Y-114962380D01*
X115038095Y-114914761D01*
X114990476Y-114867142D01*
X114942857Y-114771904D01*
X114942857Y-114486190D01*
X114990476Y-114390952D01*
X115038095Y-114343333D01*
X115133333Y-114295714D01*
X115323809Y-114295714D01*
X115419047Y-114343333D01*
X108751714Y-75366476D02*
X109561238Y-75366476D01*
X109656476Y-75414095D01*
X109704095Y-75461714D01*
X109751714Y-75556952D01*
X109751714Y-75699809D01*
X109704095Y-75795047D01*
X109370761Y-75366476D02*
X109418380Y-75461714D01*
X109418380Y-75652190D01*
X109370761Y-75747428D01*
X109323142Y-75795047D01*
X109227904Y-75842666D01*
X108942190Y-75842666D01*
X108846952Y-75795047D01*
X108799333Y-75747428D01*
X108751714Y-75652190D01*
X108751714Y-75461714D01*
X108799333Y-75366476D01*
X108751714Y-74890285D02*
X109418380Y-74890285D01*
X108846952Y-74890285D02*
X108799333Y-74842666D01*
X108751714Y-74747428D01*
X108751714Y-74604571D01*
X108799333Y-74509333D01*
X108894571Y-74461714D01*
X109418380Y-74461714D01*
X109418380Y-73556952D02*
X108418380Y-73556952D01*
X109370761Y-73556952D02*
X109418380Y-73652190D01*
X109418380Y-73842666D01*
X109370761Y-73937904D01*
X109323142Y-73985523D01*
X109227904Y-74033142D01*
X108942190Y-74033142D01*
X108846952Y-73985523D01*
X108799333Y-73937904D01*
X108751714Y-73842666D01*
X108751714Y-73652190D01*
X108799333Y-73556952D01*
X120253261Y-122131614D02*
X120491357Y-122798280D01*
X120729452Y-122131614D01*
X121491357Y-122750661D02*
X121396119Y-122798280D01*
X121205642Y-122798280D01*
X121110404Y-122750661D01*
X121062785Y-122655423D01*
X121062785Y-122274471D01*
X121110404Y-122179233D01*
X121205642Y-122131614D01*
X121396119Y-122131614D01*
X121491357Y-122179233D01*
X121538976Y-122274471D01*
X121538976Y-122369709D01*
X121062785Y-122464947D01*
X122348500Y-122750661D02*
X122253261Y-122798280D01*
X122062785Y-122798280D01*
X121967547Y-122750661D01*
X121919928Y-122655423D01*
X121919928Y-122274471D01*
X121967547Y-122179233D01*
X122062785Y-122131614D01*
X122253261Y-122131614D01*
X122348500Y-122179233D01*
X122396119Y-122274471D01*
X122396119Y-122369709D01*
X121919928Y-122464947D01*
X106600761Y-121877614D02*
X106838857Y-122544280D01*
X107076952Y-121877614D01*
X107886476Y-122496661D02*
X107791238Y-122544280D01*
X107600761Y-122544280D01*
X107505523Y-122496661D01*
X107457904Y-122449042D01*
X107410285Y-122353804D01*
X107410285Y-122068090D01*
X107457904Y-121972852D01*
X107505523Y-121925233D01*
X107600761Y-121877614D01*
X107791238Y-121877614D01*
X107886476Y-121925233D01*
X108743619Y-122496661D02*
X108648380Y-122544280D01*
X108457904Y-122544280D01*
X108362666Y-122496661D01*
X108315047Y-122449042D01*
X108267428Y-122353804D01*
X108267428Y-122068090D01*
X108315047Y-121972852D01*
X108362666Y-121925233D01*
X108457904Y-121877614D01*
X108648380Y-121877614D01*
X108743619Y-121925233D01*
X151423714Y-127039523D02*
X151423714Y-126658571D01*
X151090380Y-126896666D02*
X151947523Y-126896666D01*
X152042761Y-126849047D01*
X152090380Y-126753809D01*
X152090380Y-126658571D01*
X152185619Y-126563333D02*
X152185619Y-125801428D01*
X152090380Y-125420476D02*
X152042761Y-125515714D01*
X151947523Y-125563333D01*
X151090380Y-125563333D01*
X152090380Y-124515714D02*
X152090380Y-125087142D01*
X152090380Y-124801428D02*
X151090380Y-124801428D01*
X151233238Y-124896666D01*
X151328476Y-124991904D01*
X151376095Y-125087142D01*
X151296714Y-122365923D02*
X151296714Y-121984971D01*
X150963380Y-122223066D02*
X151820523Y-122223066D01*
X151915761Y-122175447D01*
X151963380Y-122080209D01*
X151963380Y-121984971D01*
X152058619Y-121889733D02*
X152058619Y-121127828D01*
X151963380Y-120746876D02*
X151915761Y-120842114D01*
X151820523Y-120889733D01*
X150963380Y-120889733D01*
X151058619Y-120413542D02*
X151011000Y-120365923D01*
X150963380Y-120270685D01*
X150963380Y-120032590D01*
X151011000Y-119937352D01*
X151058619Y-119889733D01*
X151153857Y-119842114D01*
X151249095Y-119842114D01*
X151391952Y-119889733D01*
X151963380Y-120461161D01*
X151963380Y-119842114D01*
X116244714Y-76233161D02*
X116911380Y-75995066D01*
X116244714Y-75756971D01*
X116911380Y-75376019D02*
X116244714Y-75376019D01*
X115911380Y-75376019D02*
X115959000Y-75423638D01*
X116006619Y-75376019D01*
X115959000Y-75328400D01*
X115911380Y-75376019D01*
X116006619Y-75376019D01*
X116244714Y-74899828D02*
X116911380Y-74899828D01*
X116339952Y-74899828D02*
X116292333Y-74852209D01*
X116244714Y-74756971D01*
X116244714Y-74614114D01*
X116292333Y-74518876D01*
X116387571Y-74471257D01*
X116911380Y-74471257D01*
X116911380Y-73471257D02*
X116911380Y-74042685D01*
X116911380Y-73756971D02*
X115911380Y-73756971D01*
X116054238Y-73852209D01*
X116149476Y-73947447D01*
X116197095Y-74042685D01*
X126151000Y-72683714D02*
X126389095Y-73350380D01*
X126627190Y-72683714D01*
X127436714Y-73302761D02*
X127341476Y-73350380D01*
X127151000Y-73350380D01*
X127055761Y-73302761D01*
X127008142Y-73255142D01*
X126960523Y-73159904D01*
X126960523Y-72874190D01*
X127008142Y-72778952D01*
X127055761Y-72731333D01*
X127151000Y-72683714D01*
X127341476Y-72683714D01*
X127436714Y-72731333D01*
X128008142Y-73350380D02*
X127912904Y-73302761D01*
X127865285Y-73255142D01*
X127817666Y-73159904D01*
X127817666Y-72874190D01*
X127865285Y-72778952D01*
X127912904Y-72731333D01*
X128008142Y-72683714D01*
X128151000Y-72683714D01*
X128246238Y-72731333D01*
X128293857Y-72778952D01*
X128341476Y-72874190D01*
X128341476Y-73159904D01*
X128293857Y-73255142D01*
X128246238Y-73302761D01*
X128151000Y-73350380D01*
X128008142Y-73350380D01*
X129198619Y-72683714D02*
X129198619Y-73350380D01*
X128770047Y-72683714D02*
X128770047Y-73207523D01*
X128817666Y-73302761D01*
X128912904Y-73350380D01*
X129055761Y-73350380D01*
X129151000Y-73302761D01*
X129198619Y-73255142D01*
X129674809Y-72683714D02*
X129674809Y-73683714D01*
X129674809Y-72731333D02*
X129770047Y-72683714D01*
X129960523Y-72683714D01*
X130055761Y-72731333D01*
X130103380Y-72778952D01*
X130151000Y-72874190D01*
X130151000Y-73159904D01*
X130103380Y-73255142D01*
X130055761Y-73302761D01*
X129960523Y-73350380D01*
X129770047Y-73350380D01*
X129674809Y-73302761D01*
X131103380Y-73350380D02*
X130531952Y-73350380D01*
X130817666Y-73350380D02*
X130817666Y-72350380D01*
X130722428Y-72493238D01*
X130627190Y-72588476D01*
X130531952Y-72636095D01*
X153241571Y-90235114D02*
X153479666Y-90901780D01*
X153717761Y-90235114D01*
X154051095Y-90854161D02*
X154146333Y-90901780D01*
X154336809Y-90901780D01*
X154432047Y-90854161D01*
X154479666Y-90758923D01*
X154479666Y-90711304D01*
X154432047Y-90616066D01*
X154336809Y-90568447D01*
X154193952Y-90568447D01*
X154098714Y-90520828D01*
X154051095Y-90425590D01*
X154051095Y-90377971D01*
X154098714Y-90282733D01*
X154193952Y-90235114D01*
X154336809Y-90235114D01*
X154432047Y-90282733D01*
X154908238Y-90901780D02*
X154908238Y-89901780D01*
X155336809Y-90901780D02*
X155336809Y-90377971D01*
X155289190Y-90282733D01*
X155193952Y-90235114D01*
X155051095Y-90235114D01*
X154955857Y-90282733D01*
X154908238Y-90330352D01*
X156336809Y-90901780D02*
X155765380Y-90901780D01*
X156051095Y-90901780D02*
X156051095Y-89901780D01*
X155955857Y-90044638D01*
X155860619Y-90139876D01*
X155765380Y-90187495D01*
X157845238Y-74064761D02*
X157750000Y-74112380D01*
X157559523Y-74112380D01*
X157464285Y-74064761D01*
X157416666Y-74017142D01*
X157369047Y-73921904D01*
X157369047Y-73636190D01*
X157416666Y-73540952D01*
X157464285Y-73493333D01*
X157559523Y-73445714D01*
X157750000Y-73445714D01*
X157845238Y-73493333D01*
X158416666Y-74112380D02*
X158321428Y-74064761D01*
X158273809Y-73969523D01*
X158273809Y-73112380D01*
X158797619Y-74112380D02*
X158797619Y-73112380D01*
X158892857Y-73731428D02*
X159178571Y-74112380D01*
X159178571Y-73445714D02*
X158797619Y-73826666D01*
X160130952Y-74112380D02*
X159559523Y-74112380D01*
X159845238Y-74112380D02*
X159845238Y-73112380D01*
X159750000Y-73255238D01*
X159654761Y-73350476D01*
X159559523Y-73398095D01*
X137922238Y-91886114D02*
X138160333Y-92552780D01*
X138398428Y-91886114D01*
X138779380Y-92552780D02*
X138779380Y-91552780D01*
X138779380Y-91933733D02*
X138874619Y-91886114D01*
X139065095Y-91886114D01*
X139160333Y-91933733D01*
X139207952Y-91981352D01*
X139255571Y-92076590D01*
X139255571Y-92362304D01*
X139207952Y-92457542D01*
X139160333Y-92505161D01*
X139065095Y-92552780D01*
X138874619Y-92552780D01*
X138779380Y-92505161D01*
X140112714Y-91886114D02*
X140112714Y-92552780D01*
X139684142Y-91886114D02*
X139684142Y-92409923D01*
X139731761Y-92505161D01*
X139827000Y-92552780D01*
X139969857Y-92552780D01*
X140065095Y-92505161D01*
X140112714Y-92457542D01*
X140446047Y-91886114D02*
X140827000Y-91886114D01*
X140588904Y-92552780D02*
X140588904Y-91695638D01*
X140636523Y-91600400D01*
X140731761Y-91552780D01*
X140827000Y-91552780D01*
X141684142Y-92552780D02*
X141112714Y-92552780D01*
X141398428Y-92552780D02*
X141398428Y-91552780D01*
X141303190Y-91695638D01*
X141207952Y-91790876D01*
X141112714Y-91838495D01*
X164028380Y-117841590D02*
X163980761Y-117936828D01*
X163933142Y-117984447D01*
X163837904Y-118032066D01*
X163552190Y-118032066D01*
X163456952Y-117984447D01*
X163409333Y-117936828D01*
X163361714Y-117841590D01*
X163361714Y-117698733D01*
X163409333Y-117603495D01*
X163456952Y-117555876D01*
X163552190Y-117508257D01*
X163837904Y-117508257D01*
X163933142Y-117555876D01*
X163980761Y-117603495D01*
X164028380Y-117698733D01*
X164028380Y-117841590D01*
X163980761Y-116698733D02*
X164028380Y-116793971D01*
X164028380Y-116984447D01*
X163980761Y-117079685D01*
X163885523Y-117127304D01*
X163504571Y-117127304D01*
X163409333Y-117079685D01*
X163361714Y-116984447D01*
X163361714Y-116793971D01*
X163409333Y-116698733D01*
X163504571Y-116651114D01*
X163599809Y-116651114D01*
X163695047Y-117127304D01*
X163123619Y-116270161D02*
X163076000Y-116222542D01*
X163028380Y-116127304D01*
X163028380Y-115889209D01*
X163076000Y-115793971D01*
X163123619Y-115746352D01*
X163218857Y-115698733D01*
X163314095Y-115698733D01*
X163456952Y-115746352D01*
X164028380Y-116317780D01*
X164028380Y-115698733D01*
X118737238Y-116651114D02*
X118975333Y-117317780D01*
X119213428Y-116651114D01*
X119594380Y-117317780D02*
X119594380Y-116651114D01*
X119594380Y-116317780D02*
X119546761Y-116365400D01*
X119594380Y-116413019D01*
X119642000Y-116365400D01*
X119594380Y-116317780D01*
X119594380Y-116413019D01*
X120070571Y-116651114D02*
X120070571Y-117317780D01*
X120070571Y-116746352D02*
X120118190Y-116698733D01*
X120213428Y-116651114D01*
X120356285Y-116651114D01*
X120451523Y-116698733D01*
X120499142Y-116793971D01*
X120499142Y-117317780D01*
X120927714Y-116413019D02*
X120975333Y-116365400D01*
X121070571Y-116317780D01*
X121308666Y-116317780D01*
X121403904Y-116365400D01*
X121451523Y-116413019D01*
X121499142Y-116508257D01*
X121499142Y-116603495D01*
X121451523Y-116746352D01*
X120880095Y-117317780D01*
X121499142Y-117317780D01*
X123484000Y-116524114D02*
X123722095Y-117190780D01*
X123960190Y-116524114D01*
X124769714Y-117143161D02*
X124674476Y-117190780D01*
X124484000Y-117190780D01*
X124388761Y-117143161D01*
X124341142Y-117095542D01*
X124293523Y-117000304D01*
X124293523Y-116714590D01*
X124341142Y-116619352D01*
X124388761Y-116571733D01*
X124484000Y-116524114D01*
X124674476Y-116524114D01*
X124769714Y-116571733D01*
X125341142Y-117190780D02*
X125245904Y-117143161D01*
X125198285Y-117095542D01*
X125150666Y-117000304D01*
X125150666Y-116714590D01*
X125198285Y-116619352D01*
X125245904Y-116571733D01*
X125341142Y-116524114D01*
X125484000Y-116524114D01*
X125579238Y-116571733D01*
X125626857Y-116619352D01*
X125674476Y-116714590D01*
X125674476Y-117000304D01*
X125626857Y-117095542D01*
X125579238Y-117143161D01*
X125484000Y-117190780D01*
X125341142Y-117190780D01*
X126531619Y-116524114D02*
X126531619Y-117190780D01*
X126103047Y-116524114D02*
X126103047Y-117047923D01*
X126150666Y-117143161D01*
X126245904Y-117190780D01*
X126388761Y-117190780D01*
X126484000Y-117143161D01*
X126531619Y-117095542D01*
X127007809Y-116524114D02*
X127007809Y-117524114D01*
X127007809Y-116571733D02*
X127103047Y-116524114D01*
X127293523Y-116524114D01*
X127388761Y-116571733D01*
X127436380Y-116619352D01*
X127484000Y-116714590D01*
X127484000Y-117000304D01*
X127436380Y-117095542D01*
X127388761Y-117143161D01*
X127293523Y-117190780D01*
X127103047Y-117190780D01*
X127007809Y-117143161D01*
X127864952Y-116286019D02*
X127912571Y-116238400D01*
X128007809Y-116190780D01*
X128245904Y-116190780D01*
X128341142Y-116238400D01*
X128388761Y-116286019D01*
X128436380Y-116381257D01*
X128436380Y-116476495D01*
X128388761Y-116619352D01*
X127817333Y-117190780D01*
X128436380Y-117190780D01*
X143684761Y-117524161D02*
X143589523Y-117571780D01*
X143399047Y-117571780D01*
X143303809Y-117524161D01*
X143256190Y-117476542D01*
X143208571Y-117381304D01*
X143208571Y-117095590D01*
X143256190Y-117000352D01*
X143303809Y-116952733D01*
X143399047Y-116905114D01*
X143589523Y-116905114D01*
X143684761Y-116952733D01*
X144065714Y-117524161D02*
X144160952Y-117571780D01*
X144351428Y-117571780D01*
X144446666Y-117524161D01*
X144494285Y-117428923D01*
X144494285Y-117381304D01*
X144446666Y-117286066D01*
X144351428Y-117238447D01*
X144208571Y-117238447D01*
X144113333Y-117190828D01*
X144065714Y-117095590D01*
X144065714Y-117047971D01*
X144113333Y-116952733D01*
X144208571Y-116905114D01*
X144351428Y-116905114D01*
X144446666Y-116952733D01*
X144922857Y-117571780D02*
X144922857Y-116571780D01*
X145351428Y-117571780D02*
X145351428Y-117047971D01*
X145303809Y-116952733D01*
X145208571Y-116905114D01*
X145065714Y-116905114D01*
X144970476Y-116952733D01*
X144922857Y-117000352D01*
X145780000Y-116667019D02*
X145827619Y-116619400D01*
X145922857Y-116571780D01*
X146160952Y-116571780D01*
X146256190Y-116619400D01*
X146303809Y-116667019D01*
X146351428Y-116762257D01*
X146351428Y-116857495D01*
X146303809Y-117000352D01*
X145732380Y-117571780D01*
X146351428Y-117571780D01*
X179601761Y-91354161D02*
X179649380Y-91449400D01*
X179649380Y-91639876D01*
X179601761Y-91735114D01*
X179554142Y-91782733D01*
X179458904Y-91830352D01*
X179173190Y-91830352D01*
X179077952Y-91782733D01*
X179030333Y-91735114D01*
X178982714Y-91639876D01*
X178982714Y-91449400D01*
X179030333Y-91354161D01*
X179649380Y-90782733D02*
X179601761Y-90877971D01*
X179506523Y-90925590D01*
X178649380Y-90925590D01*
X179649380Y-90401780D02*
X178649380Y-90401780D01*
X179268428Y-90306542D02*
X179649380Y-90020828D01*
X178982714Y-90020828D02*
X179363666Y-90401780D01*
X178744619Y-89639876D02*
X178697000Y-89592257D01*
X178649380Y-89497019D01*
X178649380Y-89258923D01*
X178697000Y-89163685D01*
X178744619Y-89116066D01*
X178839857Y-89068447D01*
X178935095Y-89068447D01*
X179077952Y-89116066D01*
X179649380Y-89687495D01*
X179649380Y-89068447D01*
X137993619Y-116524114D02*
X138231714Y-117190780D01*
X138469809Y-116524114D01*
X138850761Y-117190780D02*
X138850761Y-116190780D01*
X138850761Y-116571733D02*
X138946000Y-116524114D01*
X139136476Y-116524114D01*
X139231714Y-116571733D01*
X139279333Y-116619352D01*
X139326952Y-116714590D01*
X139326952Y-117000304D01*
X139279333Y-117095542D01*
X139231714Y-117143161D01*
X139136476Y-117190780D01*
X138946000Y-117190780D01*
X138850761Y-117143161D01*
X139612666Y-116524114D02*
X139993619Y-116524114D01*
X139755523Y-117190780D02*
X139755523Y-116333638D01*
X139803142Y-116238400D01*
X139898380Y-116190780D01*
X139993619Y-116190780D01*
X140279333Y-116286019D02*
X140326952Y-116238400D01*
X140422190Y-116190780D01*
X140660285Y-116190780D01*
X140755523Y-116238400D01*
X140803142Y-116286019D01*
X140850761Y-116381257D01*
X140850761Y-116476495D01*
X140803142Y-116619352D01*
X140231714Y-117190780D01*
X140850761Y-117190780D01*
X144105261Y-95108542D02*
X144152880Y-95203780D01*
X144152880Y-95394257D01*
X144105261Y-95489495D01*
X144057642Y-95537114D01*
X143962404Y-95584733D01*
X143676690Y-95584733D01*
X143581452Y-95537114D01*
X143533833Y-95489495D01*
X143486214Y-95394257D01*
X143486214Y-95203780D01*
X143533833Y-95108542D01*
X144152880Y-94679971D02*
X143486214Y-94679971D01*
X143581452Y-94679971D02*
X143533833Y-94632352D01*
X143486214Y-94537114D01*
X143486214Y-94394257D01*
X143533833Y-94299019D01*
X143629071Y-94251400D01*
X144152880Y-94251400D01*
X143629071Y-94251400D02*
X143533833Y-94203780D01*
X143486214Y-94108542D01*
X143486214Y-93965685D01*
X143533833Y-93870447D01*
X143629071Y-93822828D01*
X144152880Y-93822828D01*
X143486214Y-93346638D02*
X144486214Y-93346638D01*
X143533833Y-93346638D02*
X143486214Y-93251400D01*
X143486214Y-93060923D01*
X143533833Y-92965685D01*
X143581452Y-92918066D01*
X143676690Y-92870447D01*
X143962404Y-92870447D01*
X144057642Y-92918066D01*
X144105261Y-92965685D01*
X144152880Y-93060923D01*
X144152880Y-93251400D01*
X144105261Y-93346638D01*
X144152880Y-91918066D02*
X144152880Y-92489495D01*
X144152880Y-92203780D02*
X143152880Y-92203780D01*
X143295738Y-92299019D01*
X143390976Y-92394257D01*
X143438595Y-92489495D01*
X154836761Y-95235542D02*
X154884380Y-95330780D01*
X154884380Y-95521257D01*
X154836761Y-95616495D01*
X154789142Y-95664114D01*
X154693904Y-95711733D01*
X154408190Y-95711733D01*
X154312952Y-95664114D01*
X154265333Y-95616495D01*
X154217714Y-95521257D01*
X154217714Y-95330780D01*
X154265333Y-95235542D01*
X154884380Y-94806971D02*
X154217714Y-94806971D01*
X154312952Y-94806971D02*
X154265333Y-94759352D01*
X154217714Y-94664114D01*
X154217714Y-94521257D01*
X154265333Y-94426019D01*
X154360571Y-94378400D01*
X154884380Y-94378400D01*
X154360571Y-94378400D02*
X154265333Y-94330780D01*
X154217714Y-94235542D01*
X154217714Y-94092685D01*
X154265333Y-93997447D01*
X154360571Y-93949828D01*
X154884380Y-93949828D01*
X154217714Y-93473638D02*
X155217714Y-93473638D01*
X154265333Y-93473638D02*
X154217714Y-93378400D01*
X154217714Y-93187923D01*
X154265333Y-93092685D01*
X154312952Y-93045066D01*
X154408190Y-92997447D01*
X154693904Y-92997447D01*
X154789142Y-93045066D01*
X154836761Y-93092685D01*
X154884380Y-93187923D01*
X154884380Y-93378400D01*
X154836761Y-93473638D01*
X153979619Y-92616495D02*
X153932000Y-92568876D01*
X153884380Y-92473638D01*
X153884380Y-92235542D01*
X153932000Y-92140304D01*
X153979619Y-92092685D01*
X154074857Y-92045066D01*
X154170095Y-92045066D01*
X154312952Y-92092685D01*
X154884380Y-92664114D01*
X154884380Y-92045066D01*
X179959095Y-80503780D02*
X179959095Y-81313304D01*
X180006714Y-81408542D01*
X180054333Y-81456161D01*
X180149571Y-81503780D01*
X180340047Y-81503780D01*
X180435285Y-81456161D01*
X180482904Y-81408542D01*
X180530523Y-81313304D01*
X180530523Y-80503780D01*
X181435285Y-80837114D02*
X181435285Y-81503780D01*
X181197190Y-80456161D02*
X180959095Y-81170447D01*
X181578142Y-81170447D01*
X177554333Y-81503780D02*
X177078142Y-81503780D01*
X177078142Y-80503780D01*
X177887666Y-81503780D02*
X177887666Y-80503780D01*
X178221000Y-81218066D01*
X178554333Y-80503780D01*
X178554333Y-81503780D01*
X178982904Y-80599019D02*
X179030523Y-80551400D01*
X179125761Y-80503780D01*
X179363857Y-80503780D01*
X179459095Y-80551400D01*
X179506714Y-80599019D01*
X179554333Y-80694257D01*
X179554333Y-80789495D01*
X179506714Y-80932352D01*
X178935285Y-81503780D01*
X179554333Y-81503780D01*
X180030523Y-81503780D02*
X180221000Y-81503780D01*
X180316238Y-81456161D01*
X180363857Y-81408542D01*
X180459095Y-81265685D01*
X180506714Y-81075209D01*
X180506714Y-80694257D01*
X180459095Y-80599019D01*
X180411476Y-80551400D01*
X180316238Y-80503780D01*
X180125761Y-80503780D01*
X180030523Y-80551400D01*
X179982904Y-80599019D01*
X179935285Y-80694257D01*
X179935285Y-80932352D01*
X179982904Y-81027590D01*
X180030523Y-81075209D01*
X180125761Y-81122828D01*
X180316238Y-81122828D01*
X180411476Y-81075209D01*
X180459095Y-81027590D01*
X180506714Y-80932352D01*
X181125761Y-80503780D02*
X181221000Y-80503780D01*
X181316238Y-80551400D01*
X181363857Y-80599019D01*
X181411476Y-80694257D01*
X181459095Y-80884733D01*
X181459095Y-81122828D01*
X181411476Y-81313304D01*
X181363857Y-81408542D01*
X181316238Y-81456161D01*
X181221000Y-81503780D01*
X181125761Y-81503780D01*
X181030523Y-81456161D01*
X180982904Y-81408542D01*
X180935285Y-81313304D01*
X180887666Y-81122828D01*
X180887666Y-80884733D01*
X180935285Y-80694257D01*
X180982904Y-80599019D01*
X181030523Y-80551400D01*
X181125761Y-80503780D01*
X182316238Y-80837114D02*
X182316238Y-81503780D01*
X182078142Y-80456161D02*
X181840047Y-81170447D01*
X182459095Y-81170447D01*
X182840047Y-81503780D02*
X182840047Y-80503780D01*
X183078142Y-80503780D01*
X183221000Y-80551400D01*
X183316238Y-80646638D01*
X183363857Y-80741876D01*
X183411476Y-80932352D01*
X183411476Y-81075209D01*
X183363857Y-81265685D01*
X183316238Y-81360923D01*
X183221000Y-81456161D01*
X183078142Y-81503780D01*
X182840047Y-81503780D01*
X184411476Y-81503780D02*
X184078142Y-81027590D01*
X183840047Y-81503780D02*
X183840047Y-80503780D01*
X184221000Y-80503780D01*
X184316238Y-80551400D01*
X184363857Y-80599019D01*
X184411476Y-80694257D01*
X184411476Y-80837114D01*
X184363857Y-80932352D01*
X184316238Y-80979971D01*
X184221000Y-81027590D01*
X183840047Y-81027590D01*
X179108100Y-78078080D02*
X179108100Y-78316176D01*
X178870004Y-78220938D02*
X179108100Y-78316176D01*
X179346195Y-78220938D01*
X178965242Y-78506652D02*
X179108100Y-78316176D01*
X179250957Y-78506652D01*
X179108100Y-78078080D02*
X179108100Y-78316176D01*
X178870004Y-78220938D02*
X179108100Y-78316176D01*
X179346195Y-78220938D01*
X178965242Y-78506652D02*
X179108100Y-78316176D01*
X179250957Y-78506652D01*
X162266380Y-107441904D02*
X163075904Y-107441904D01*
X163171142Y-107394285D01*
X163218761Y-107346666D01*
X163266380Y-107251428D01*
X163266380Y-107060952D01*
X163218761Y-106965714D01*
X163171142Y-106918095D01*
X163075904Y-106870476D01*
X162266380Y-106870476D01*
X162266380Y-105918095D02*
X162266380Y-106394285D01*
X162742571Y-106441904D01*
X162694952Y-106394285D01*
X162647333Y-106299047D01*
X162647333Y-106060952D01*
X162694952Y-105965714D01*
X162742571Y-105918095D01*
X162837809Y-105870476D01*
X163075904Y-105870476D01*
X163171142Y-105918095D01*
X163218761Y-105965714D01*
X163266380Y-106060952D01*
X163266380Y-106299047D01*
X163218761Y-106394285D01*
X163171142Y-106441904D01*
X160234380Y-111275238D02*
X160234380Y-110703809D01*
X161234380Y-110989523D02*
X160234380Y-110989523D01*
X161234380Y-109894285D02*
X161234380Y-110370476D01*
X160234380Y-110370476D01*
X161139142Y-108989523D02*
X161186761Y-109037142D01*
X161234380Y-109180000D01*
X161234380Y-109275238D01*
X161186761Y-109418095D01*
X161091523Y-109513333D01*
X160996285Y-109560952D01*
X160805809Y-109608571D01*
X160662952Y-109608571D01*
X160472476Y-109560952D01*
X160377238Y-109513333D01*
X160282000Y-109418095D01*
X160234380Y-109275238D01*
X160234380Y-109180000D01*
X160282000Y-109037142D01*
X160329619Y-108989523D01*
X160234380Y-108084761D02*
X160234380Y-108560952D01*
X160710571Y-108608571D01*
X160662952Y-108560952D01*
X160615333Y-108465714D01*
X160615333Y-108227619D01*
X160662952Y-108132380D01*
X160710571Y-108084761D01*
X160805809Y-108037142D01*
X161043904Y-108037142D01*
X161139142Y-108084761D01*
X161186761Y-108132380D01*
X161234380Y-108227619D01*
X161234380Y-108465714D01*
X161186761Y-108560952D01*
X161139142Y-108608571D01*
X160234380Y-107132380D02*
X160234380Y-107608571D01*
X160710571Y-107656190D01*
X160662952Y-107608571D01*
X160615333Y-107513333D01*
X160615333Y-107275238D01*
X160662952Y-107180000D01*
X160710571Y-107132380D01*
X160805809Y-107084761D01*
X161043904Y-107084761D01*
X161139142Y-107132380D01*
X161186761Y-107180000D01*
X161234380Y-107275238D01*
X161234380Y-107513333D01*
X161186761Y-107608571D01*
X161139142Y-107656190D01*
X160567714Y-106227619D02*
X161234380Y-106227619D01*
X160186761Y-106465714D02*
X160901047Y-106703809D01*
X160901047Y-106084761D01*
X160234380Y-105513333D02*
X160234380Y-105418095D01*
X160282000Y-105322857D01*
X160329619Y-105275238D01*
X160424857Y-105227619D01*
X160615333Y-105180000D01*
X160853428Y-105180000D01*
X161043904Y-105227619D01*
X161139142Y-105275238D01*
X161186761Y-105322857D01*
X161234380Y-105418095D01*
X161234380Y-105513333D01*
X161186761Y-105608571D01*
X161139142Y-105656190D01*
X161043904Y-105703809D01*
X160853428Y-105751428D01*
X160615333Y-105751428D01*
X160424857Y-105703809D01*
X160329619Y-105656190D01*
X160282000Y-105608571D01*
X160234380Y-105513333D01*
X161139142Y-104180000D02*
X161186761Y-104227619D01*
X161234380Y-104370476D01*
X161234380Y-104465714D01*
X161186761Y-104608571D01*
X161091523Y-104703809D01*
X160996285Y-104751428D01*
X160805809Y-104799047D01*
X160662952Y-104799047D01*
X160472476Y-104751428D01*
X160377238Y-104703809D01*
X160282000Y-104608571D01*
X160234380Y-104465714D01*
X160234380Y-104370476D01*
X160282000Y-104227619D01*
X160329619Y-104180000D01*
X161234380Y-103751428D02*
X160234380Y-103751428D01*
X161234380Y-103180000D01*
X160234380Y-103180000D01*
X161186761Y-102751428D02*
X161234380Y-102608571D01*
X161234380Y-102370476D01*
X161186761Y-102275238D01*
X161139142Y-102227619D01*
X161043904Y-102180000D01*
X160948666Y-102180000D01*
X160853428Y-102227619D01*
X160805809Y-102275238D01*
X160758190Y-102370476D01*
X160710571Y-102560952D01*
X160662952Y-102656190D01*
X160615333Y-102703809D01*
X160520095Y-102751428D01*
X160424857Y-102751428D01*
X160329619Y-102703809D01*
X160282000Y-102656190D01*
X160234380Y-102560952D01*
X160234380Y-102322857D01*
X160282000Y-102180000D01*
X165684200Y-114463580D02*
X165684200Y-114701676D01*
X165446104Y-114606438D02*
X165684200Y-114701676D01*
X165922295Y-114606438D01*
X165541342Y-114892152D02*
X165684200Y-114701676D01*
X165827057Y-114892152D01*
X165684200Y-114463580D02*
X165684200Y-114701676D01*
X165446104Y-114606438D02*
X165684200Y-114701676D01*
X165922295Y-114606438D01*
X165541342Y-114892152D02*
X165684200Y-114701676D01*
X165827057Y-114892152D01*
X142875095Y-121016780D02*
X142875095Y-121826304D01*
X142922714Y-121921542D01*
X142970333Y-121969161D01*
X143065571Y-122016780D01*
X143256047Y-122016780D01*
X143351285Y-121969161D01*
X143398904Y-121921542D01*
X143446523Y-121826304D01*
X143446523Y-121016780D01*
X144065571Y-121445352D02*
X143970333Y-121397733D01*
X143922714Y-121350114D01*
X143875095Y-121254876D01*
X143875095Y-121207257D01*
X143922714Y-121112019D01*
X143970333Y-121064400D01*
X144065571Y-121016780D01*
X144256047Y-121016780D01*
X144351285Y-121064400D01*
X144398904Y-121112019D01*
X144446523Y-121207257D01*
X144446523Y-121254876D01*
X144398904Y-121350114D01*
X144351285Y-121397733D01*
X144256047Y-121445352D01*
X144065571Y-121445352D01*
X143970333Y-121492971D01*
X143922714Y-121540590D01*
X143875095Y-121635828D01*
X143875095Y-121826304D01*
X143922714Y-121921542D01*
X143970333Y-121969161D01*
X144065571Y-122016780D01*
X144256047Y-122016780D01*
X144351285Y-121969161D01*
X144398904Y-121921542D01*
X144446523Y-121826304D01*
X144446523Y-121635828D01*
X144398904Y-121540590D01*
X144351285Y-121492971D01*
X144256047Y-121445352D01*
X140470333Y-122016780D02*
X139994142Y-122016780D01*
X139994142Y-121016780D01*
X140803666Y-122016780D02*
X140803666Y-121016780D01*
X141137000Y-121731066D01*
X141470333Y-121016780D01*
X141470333Y-122016780D01*
X141898904Y-121112019D02*
X141946523Y-121064400D01*
X142041761Y-121016780D01*
X142279857Y-121016780D01*
X142375095Y-121064400D01*
X142422714Y-121112019D01*
X142470333Y-121207257D01*
X142470333Y-121302495D01*
X142422714Y-121445352D01*
X141851285Y-122016780D01*
X142470333Y-122016780D01*
X142946523Y-122016780D02*
X143137000Y-122016780D01*
X143232238Y-121969161D01*
X143279857Y-121921542D01*
X143375095Y-121778685D01*
X143422714Y-121588209D01*
X143422714Y-121207257D01*
X143375095Y-121112019D01*
X143327476Y-121064400D01*
X143232238Y-121016780D01*
X143041761Y-121016780D01*
X142946523Y-121064400D01*
X142898904Y-121112019D01*
X142851285Y-121207257D01*
X142851285Y-121445352D01*
X142898904Y-121540590D01*
X142946523Y-121588209D01*
X143041761Y-121635828D01*
X143232238Y-121635828D01*
X143327476Y-121588209D01*
X143375095Y-121540590D01*
X143422714Y-121445352D01*
X144041761Y-121016780D02*
X144137000Y-121016780D01*
X144232238Y-121064400D01*
X144279857Y-121112019D01*
X144327476Y-121207257D01*
X144375095Y-121397733D01*
X144375095Y-121635828D01*
X144327476Y-121826304D01*
X144279857Y-121921542D01*
X144232238Y-121969161D01*
X144137000Y-122016780D01*
X144041761Y-122016780D01*
X143946523Y-121969161D01*
X143898904Y-121921542D01*
X143851285Y-121826304D01*
X143803666Y-121635828D01*
X143803666Y-121397733D01*
X143851285Y-121207257D01*
X143898904Y-121112019D01*
X143946523Y-121064400D01*
X144041761Y-121016780D01*
X145232238Y-121350114D02*
X145232238Y-122016780D01*
X144994142Y-120969161D02*
X144756047Y-121683447D01*
X145375095Y-121683447D01*
X145756047Y-122016780D02*
X145756047Y-121016780D01*
X145994142Y-121016780D01*
X146137000Y-121064400D01*
X146232238Y-121159638D01*
X146279857Y-121254876D01*
X146327476Y-121445352D01*
X146327476Y-121588209D01*
X146279857Y-121778685D01*
X146232238Y-121873923D01*
X146137000Y-121969161D01*
X145994142Y-122016780D01*
X145756047Y-122016780D01*
X147327476Y-122016780D02*
X146994142Y-121540590D01*
X146756047Y-122016780D02*
X146756047Y-121016780D01*
X147137000Y-121016780D01*
X147232238Y-121064400D01*
X147279857Y-121112019D01*
X147327476Y-121207257D01*
X147327476Y-121350114D01*
X147279857Y-121445352D01*
X147232238Y-121492971D01*
X147137000Y-121540590D01*
X146756047Y-121540590D01*
X142024100Y-118591080D02*
X142024100Y-118829176D01*
X141786004Y-118733938D02*
X142024100Y-118829176D01*
X142262195Y-118733938D01*
X141881242Y-119019652D02*
X142024100Y-118829176D01*
X142166957Y-119019652D01*
X142024100Y-118591080D02*
X142024100Y-118829176D01*
X141786004Y-118733938D02*
X142024100Y-118829176D01*
X142262195Y-118733938D01*
X141881242Y-119019652D02*
X142024100Y-118829176D01*
X142166957Y-119019652D01*
X159035904Y-125842780D02*
X159035904Y-126652304D01*
X159083523Y-126747542D01*
X159131142Y-126795161D01*
X159226380Y-126842780D01*
X159416857Y-126842780D01*
X159512095Y-126795161D01*
X159559714Y-126747542D01*
X159607333Y-126652304D01*
X159607333Y-125842780D01*
X160607333Y-126842780D02*
X160035904Y-126842780D01*
X160321619Y-126842780D02*
X160321619Y-125842780D01*
X160226380Y-125985638D01*
X160131142Y-126080876D01*
X160035904Y-126128495D01*
X161226380Y-125842780D02*
X161321619Y-125842780D01*
X161416857Y-125890400D01*
X161464476Y-125938019D01*
X161512095Y-126033257D01*
X161559714Y-126223733D01*
X161559714Y-126461828D01*
X161512095Y-126652304D01*
X161464476Y-126747542D01*
X161416857Y-126795161D01*
X161321619Y-126842780D01*
X161226380Y-126842780D01*
X161131142Y-126795161D01*
X161083523Y-126747542D01*
X161035904Y-126652304D01*
X160988285Y-126461828D01*
X160988285Y-126223733D01*
X161035904Y-126033257D01*
X161083523Y-125938019D01*
X161131142Y-125890400D01*
X161226380Y-125842780D01*
M02*
