M48
INCH,TZ
T1C0.0157
T2C0.0350
T3C0.0394
T4C0.0728
T5C0.0787
T6C0.0791
%
G90
G05
T1
X52300Y-44860
X52349Y-35860
X52350Y-50210
X52500Y-38000
X53200Y-30500
X53200Y-32300
X53200Y-32300
X53500Y-36000
X54252Y-30509
X54252Y-32458
X54300Y-41460
X54351Y-39960
X55600Y-48600
X56500Y-35000
X56800Y-30511
X56900Y-40061
X57450Y-47110
X57850Y-33110
X57900Y-42110
X59850Y-43860
X59900Y-30860
X59900Y-32660
X59950Y-41610
X60150Y-38810
X61500Y-32500
X61500Y-33500
X62400Y-39560
X62420Y-30040
X62500Y-37210
X62500Y-45000
X62500Y-46000
X62550Y-38210
X63450Y-48160
X63450Y-49110
X63500Y-35000
X64250Y-37210
X64250Y-37760
X64980Y-30580
X65000Y-35000
X65080Y-30110
X68717Y-43027
X69000Y-44000
X70500Y-34000
X70975Y-44660
X71000Y-32500
X71100Y-43185
X72100Y-31610
X72100Y-32210
T2
X45550Y-41260
X45550Y-42260
X45550Y-33710
X45550Y-34710
T3
X73500Y-39860
X73500Y-40844
X73500Y-41829
X47775Y-49085
X69550Y-35610
X47400Y-44910
X49550Y-44960
X60800Y-49500
X56175Y-43560
X61000Y-29500
X73500Y-46000
X73500Y-46984
X73500Y-47969
X42500Y-46000
X57050Y-45110
X69550Y-33960
X50650Y-29510
X61050Y-34660
X59925Y-36960
X42400Y-48985
X47000Y-29360
X54950Y-45060
X76425Y-32135
X66950Y-30110
X66950Y-31110
X66950Y-32110
X66950Y-33110
X66950Y-34110
X66950Y-35110
X66950Y-36110
X66950Y-37110
X66950Y-38110
X66950Y-39110
X66950Y-40110
X66950Y-41110
X66950Y-42110
X66950Y-43110
X66950Y-44110
X66950Y-45110
X66950Y-46110
X66950Y-47110
X66950Y-48110
X66950Y-49110
X67950Y-30110
X67950Y-31110
X67950Y-32110
X67950Y-33110
X67950Y-34110
X67950Y-35110
X67950Y-36110
X67950Y-37110
X67950Y-38110
X67950Y-39110
X67950Y-40110
X67950Y-41110
X67950Y-42110
X67950Y-43110
X67950Y-44110
X67950Y-45110
X67950Y-46110
X67950Y-47110
X67950Y-48110
X67950Y-49110
X43925Y-29435
X65350Y-45960
X53475Y-48000
X55050Y-35310
X57600Y-36985
X45000Y-46000
X60750Y-47610
T4
X48300Y-39410
X48300Y-41260
X48300Y-43110
X48400Y-31910
X48400Y-33760
X48400Y-35610
T6
X43550Y-39260
X43550Y-43260
X43550Y-31710
X43550Y-35710
T5
G00X76354Y-38640
M15
G01X76551Y-38640
M16
G05
G00X76354Y-43049
M15
G01X76551Y-43049
M16
G05
G00X76354Y-44780
M15
G01X76551Y-44780
M16
G05
G00X76354Y-49189
M15
G01X76551Y-49189
M16
G05
T0
M30
